<svg width="43" height="28" viewBox="0 0 43 28" fill="none" xmlns="http://www.w3.org/2000/svg">
<path d="M0 17.5553C0.0857089 16.7968 0.149991 16.0278 0.257127 15.2693C0.824948 11.0239 2.19629 7.06291 4.82112 3.58654C6.1389 1.84835 7.83165 0.605283 10.0494 0.162835C11.9778 -0.216406 13.842 0.0890937 15.6204 0.847576C16.4454 1.20575 17.2382 1.6482 18.0096 2.12225C18.8238 2.6279 19.6809 2.92287 20.6558 2.92287C21.1701 2.92287 21.6951 2.91233 22.2093 2.92287C23.2807 2.94394 24.2342 2.6279 25.1234 2.03797C26.8162 0.910782 28.6696 0.183904 30.7266 0.0258869C33.1586 -0.153199 35.2371 0.636887 36.9941 2.2592C38.6547 3.79723 39.7368 5.72504 40.6474 7.74765C42.533 11.9298 43.2401 16.3227 42.9294 20.8736C42.8437 22.1588 42.6187 23.4335 42.4152 24.7082C42.3402 25.1717 42.1366 25.6247 41.9331 26.0566C40.9796 28.037 38.5904 28.4584 37.0155 27.4998C35.6549 26.657 34.4657 25.6141 33.3515 24.4869C32.398 23.5283 31.4766 22.517 30.5659 21.5162C29.9231 20.8104 29.141 20.4312 28.1661 20.4417C23.7306 20.4417 19.2952 20.4417 14.8598 20.4417C13.8955 20.4417 13.1027 20.7999 12.4599 21.5162C10.8529 23.3387 9.20299 25.119 7.27454 26.6149C6.86742 26.9309 6.44959 27.2259 5.99962 27.4787C4.16759 28.5427 2.05701 27.9317 1.08207 26.0671C0.557108 25.0663 0.417831 23.9813 0.257127 22.8857C0.149991 22.1483 0.0857089 21.4109 0 20.684C0 19.6516 0 18.6087 0 17.5553ZM10.51 9.48584C9.58868 9.48584 8.73159 9.46477 7.86379 9.49638C7.7138 9.49638 7.49953 9.63333 7.43524 9.77028C7.0817 10.5077 7.10312 11.2767 7.39239 12.0457C7.49953 12.3196 7.66023 12.446 7.98164 12.4355C8.77444 12.4144 9.56725 12.425 10.4029 12.425C10.4029 13.2677 10.4136 14.0578 10.3922 14.8479C10.3815 15.1218 10.4993 15.2798 10.735 15.3957C11.3671 15.7117 12.0314 15.7223 12.6956 15.5221C13.3706 15.3219 13.392 15.2903 13.392 14.6161C13.392 13.8893 13.392 13.1624 13.392 12.4566C13.4777 12.4355 13.5099 12.4144 13.5313 12.4144C14.3562 12.4144 15.1812 12.4144 16.0061 12.4039C16.1347 12.4039 16.3597 12.3407 16.3918 12.2669C16.5525 11.7508 16.7775 11.2135 16.7668 10.6868C16.7347 9.73867 16.3704 9.48584 15.3955 9.48584C14.7741 9.48584 14.1527 9.48584 13.5099 9.48584C13.5099 8.60095 13.4991 7.76872 13.5206 6.94704C13.5206 6.71528 13.4456 6.5994 13.2206 6.52566C12.4385 6.27283 11.6671 6.22016 10.8743 6.45191C10.5958 6.52566 10.4886 6.65207 10.4993 6.9365C10.5208 7.76872 10.51 8.59041 10.51 9.48584ZM33.3408 10.3918C33.3408 11.6559 34.3693 12.6778 35.6549 12.6883C36.9512 12.6883 38.0012 11.6559 37.9905 10.3707C37.9797 9.1066 36.9405 8.09529 35.6549 8.09529C34.3585 8.10583 33.3408 9.12767 33.3408 10.3918ZM32.1837 7.01024C32.1837 5.74611 31.1552 4.72426 29.8695 4.72426C28.5839 4.71373 27.5447 5.72504 27.5447 6.99971C27.534 8.28491 28.5732 9.31729 29.8803 9.30676C31.1445 9.29622 32.1837 8.26384 32.1837 7.01024ZM32.1837 13.3099C32.1837 12.0457 31.1552 11.0344 29.8588 11.0344C28.5518 11.0344 27.5233 12.0563 27.534 13.3415C27.5447 14.6161 28.5732 15.6064 29.8695 15.5958C31.1659 15.5853 32.1837 14.574 32.1837 13.3099Z" fill="#6E264A"/>
</svg>
