<svg width="39" height="39" viewBox="0 0 39 39" fill="none" xmlns="http://www.w3.org/2000/svg">
<path d="M0.463947 0C13.309 0 26.155 0 39 0C39 9.29114 39 18.5823 39 27.8734C38.823 27.8683 38.6449 27.8602 38.4679 27.8602C25.8264 27.8592 13.1848 27.8592 0.544323 27.8592C0.372378 27.8592 0.200433 27.8592 0.00712199 27.8592C0.00712199 27.7005 0.00712199 27.5997 0.00712199 27.499C0.00610456 18.6281 0.00813941 9.7561 0 0.885161C0 0.484295 0.148544 0.210607 0.463947 0ZM13.9306 21.5532C13.5898 20.902 13.2764 20.1908 12.8664 19.5417C11.3901 17.2016 8.99405 16.2229 6.49424 16.9188C4.89789 17.3634 3.79704 18.4337 2.97699 19.8235C2.0725 21.3568 1.60448 23.0295 1.42236 24.7916C1.36437 25.3573 1.57803 25.7124 2.02163 25.7511C2.47947 25.7908 2.73281 25.5028 2.82031 24.9371C2.92917 24.2371 3.03905 23.5321 3.22423 22.8494C3.58236 21.5267 4.11956 20.2855 5.11562 19.2996C6.73435 17.6981 9.28097 17.7002 10.9048 19.2975C11.502 19.8846 11.9303 20.5846 12.2681 21.3436C12.8033 22.5482 13.0872 23.8169 13.2469 25.1203C13.2988 25.5415 13.5745 25.7673 13.9642 25.7521C14.3244 25.7389 14.5716 25.4886 14.6306 25.0958C14.7028 24.6075 14.7598 24.114 14.8656 23.6328C15.1953 22.1321 15.6897 20.6985 16.7367 19.5275C17.7968 18.3412 19.1307 17.9037 20.6873 18.1957C22.1229 18.4643 23.0518 19.4094 23.7396 20.6232C24.5007 21.9673 24.8669 23.4395 25.0592 24.9605C25.0674 25.0236 25.0653 25.0877 25.0765 25.1498C25.1447 25.515 25.4062 25.747 25.7531 25.7531C26.1123 25.7602 26.3544 25.5598 26.449 25.1793C26.6698 24.2951 26.8428 23.3957 27.1266 22.5319C27.5631 21.2032 28.2255 19.9935 29.3283 19.0818C29.9429 18.5741 30.6388 18.2445 31.4395 18.1621C31.4975 18.3025 31.5402 18.4083 31.586 18.5131C32.1782 19.8764 33.7185 20.5337 35.1053 20.0169C36.4992 19.4969 37.2409 17.9494 36.7729 16.5362C36.4106 15.4415 35.3729 14.6642 34.2232 14.6296C33.0318 14.593 31.9594 15.3062 31.5362 16.4396C31.4568 16.6532 31.3632 16.7509 31.1241 16.7855C29.7923 16.9788 28.666 17.5954 27.789 18.6036C27.3098 19.1541 26.9099 19.7808 26.5274 20.4045C26.2567 20.8461 26.0746 21.3415 25.8314 21.8594C25.7673 21.6997 25.7307 21.5786 25.6737 21.4697C25.2902 20.7291 24.9758 19.9385 24.5037 19.2599C23.0854 17.222 21.1228 16.3663 18.6596 16.8435C17.0287 17.1589 15.8617 18.1743 15.0009 19.5448C14.5919 20.1919 14.2755 20.899 13.9306 21.5532ZM16.0163 9.04085C16.0163 10.043 16.0062 11.0452 16.0194 12.0473C16.0296 12.788 16.346 13.372 17.0165 13.722C17.6198 14.0374 18.2343 14.0069 18.7807 13.6122C20.1888 12.5947 21.5959 11.5753 22.9684 10.51C23.9635 9.73779 23.9309 8.31645 22.9277 7.55338C21.5857 6.5329 20.2285 5.53073 18.857 4.54993C18.5925 4.36069 18.2384 4.22741 17.9159 4.20095C16.8618 4.11447 16.0377 4.94368 16.0204 6.072C16.0031 7.06196 16.0153 8.05192 16.0163 9.04085Z" fill="#6E264A"/>
<path d="M39 31.529C38.8117 31.9227 38.4862 32.0397 38.068 32.0397C25.6961 32.0357 13.3252 32.0367 0.953287 32.0357C0.224809 32.0357 0.00708008 31.8098 0.00708008 31.0722C0.00708008 30.5014 0.0101324 29.9306 0.0121672 29.3598C0.0121672 29.3364 0.0264112 29.3141 0.0487946 29.2449C13.023 29.2449 26.0115 29.2449 39 29.2449C39 30.0059 39 30.768 39 31.529Z" fill="#6E264A"/>
<path d="M26.0228 36.1837C21.654 36.1837 17.3574 36.1837 12.9937 36.1837C13.129 35.9029 13.245 35.6577 13.366 35.4145C13.654 34.8366 13.9531 34.2628 14.2298 33.6788C14.3173 33.4947 14.418 33.4204 14.6297 33.4214C17.8773 33.4285 21.1239 33.4245 24.3715 33.4326C24.4875 33.4326 24.6635 33.4936 24.7083 33.5801C25.1488 34.4205 25.566 35.2711 26.0228 36.1837Z" fill="#6E264A"/>
<path d="M19.499 37.6082C22.8727 37.6082 26.2475 37.6082 29.6213 37.6082C29.7485 37.6082 29.8757 37.6031 30.0019 37.6143C30.3641 37.6469 30.6143 37.9043 30.6316 38.2543C30.65 38.6195 30.4098 38.9217 30.0476 38.9817C29.9612 38.996 29.8706 38.9919 29.7821 38.9919C22.9328 38.9919 16.0824 38.9919 9.23312 38.9919C9.13138 38.9919 9.02862 38.996 8.92993 38.9767C8.58807 38.9085 8.36017 38.6104 8.37441 38.2624C8.38865 37.9114 8.63691 37.6489 8.99708 37.6143C9.12324 37.6021 9.25042 37.6082 9.37759 37.6082C12.7504 37.6082 16.1242 37.6082 19.499 37.6082Z" fill="#6E264A"/>
<path d="M35.5091 17.4011C35.5122 18.1824 34.8864 18.8112 34.1132 18.8031C33.3532 18.7949 32.7448 18.1794 32.7417 17.4153C32.7387 16.6339 33.3654 16.0041 34.1376 16.0133C34.8976 16.0204 35.5061 16.637 35.5091 17.4011Z" fill="#6E264A"/>
<path d="M17.4154 9.03979C17.4154 8.08951 17.4011 7.13924 17.4265 6.18896C17.4316 5.9926 17.5446 5.74129 17.6931 5.62938C17.7786 5.56528 18.0645 5.68941 18.212 5.79624C19.4614 6.7048 20.7016 7.62659 21.9419 8.54736C22.4099 8.8943 22.4058 9.21275 21.9276 9.56784C20.6762 10.4957 19.4268 11.4246 18.1652 12.3393C18.0309 12.437 17.7725 12.5275 17.6677 12.4634C17.5324 12.381 17.4296 12.1409 17.4255 11.9669C17.4042 10.9912 17.4154 10.0155 17.4154 9.03979Z" fill="#6E264A"/>
</svg>
