<svg width="26" height="46" viewBox="0 0 26 46" fill="none" xmlns="http://www.w3.org/2000/svg">
<path d="M0.0144766 22.9783C0.0144766 16.1282 0.0289532 9.27806 0 2.42792C0 0.505836 1.18708 -0.173397 2.96771 0.0289278C3.11247 0.0433795 3.27172 0.260156 3.3441 0.419126C3.86526 1.48856 4.37194 2.55799 4.84967 3.65632C5.18263 4.40782 5.68931 4.75466 6.52895 4.74021C10.843 4.72575 15.157 4.72575 19.4855 4.74021C20.3252 4.74021 20.8318 4.40782 21.1648 3.65632C21.6425 2.57244 22.1782 1.50301 22.6559 0.419126C22.8007 0.101187 22.9744 -0.0288794 23.3074 0.014476C23.539 0.0433795 23.7706 0.014476 24.0167 0.0289278C25.1314 0.0867349 25.9276 0.867131 26 1.99437C26.0145 2.12444 26 2.24005 26 2.37012C26 16.1282 26 29.8863 25.9855 43.6444C25.9855 44.1213 25.8552 44.656 25.6236 45.0751C25.2472 45.7688 24.5523 46 23.7851 46C16.5902 46 9.4098 46.0145 2.21492 46C0.781737 46 0 45.1474 0 43.7022C0 36.7798 0.0144766 29.8718 0.0144766 22.9783ZM9.27951 27.6463C9.26503 28.4122 9.69933 28.9614 10.3218 29.1204C10.9298 29.2793 11.5379 28.9758 11.8708 28.3255C13.4053 25.3051 14.9399 22.2991 16.4599 19.2642C16.5902 18.9897 16.6626 18.6428 16.6336 18.3393C16.5757 17.7324 16.0835 17.2988 15.49 17.2121C14.9109 17.1254 14.3753 17.4289 14.0568 18.0503C12.5223 21.0563 11.0022 24.0478 9.48218 27.0537C9.36637 27.285 9.30846 27.5307 9.27951 27.6463ZM19.5145 24.4813C18.8196 25.1461 18.1971 25.7531 17.5891 26.3601C16.9087 27.0393 16.8797 27.8341 17.4733 28.4122C18.0523 28.9758 18.8341 28.9325 19.4855 28.2821C20.3976 27.3861 21.3096 26.4757 22.2071 25.5652C22.9165 24.8426 22.931 24.12 22.2216 23.3974C21.3241 22.487 20.412 21.5765 19.5 20.6805C18.8341 20.0302 17.9944 20.0013 17.4443 20.5794C16.8942 21.1574 16.9376 21.9378 17.5891 22.5882C18.1826 23.2096 18.8196 23.8165 19.5145 24.4813ZM6.51448 21.1719C7.19488 20.4926 7.83185 19.8857 8.45434 19.2498C9.09131 18.5995 9.12027 17.8046 8.55568 17.241C7.99109 16.6774 7.19488 16.7063 6.54343 17.3566C5.61693 18.2671 4.7049 19.192 3.79287 20.1024C3.11247 20.7817 3.11247 21.5187 3.76392 22.198C4.69042 23.1373 5.61693 24.0622 6.55791 24.9871C7.20935 25.623 8.02005 25.6519 8.57016 25.0739C9.13474 24.4958 9.09131 23.7154 8.43987 23.0506C7.83185 22.4436 7.20935 21.8511 6.51448 21.1719ZM12.9855 41.7078C11.8129 41.7078 10.6403 41.7078 9.46771 41.7078C8.5412 41.7078 7.90423 42.2715 7.91871 43.0663C7.93319 43.8467 8.5412 44.3959 9.43875 44.4103C11.7984 44.4103 14.1726 44.4103 16.5323 44.4103C17.4588 44.4103 18.0958 43.8467 18.0813 43.0374C18.0668 42.2426 17.4588 41.7078 16.5612 41.7078C15.3742 41.7078 14.1726 41.7078 12.9855 41.7078Z" fill="#F0B800"/>
<path d="M6.16704 0.0576172C10.7561 0.0576172 15.2584 0.0576172 19.8185 0.0576172C19.529 0.679044 19.2828 1.25711 18.9933 1.80628C18.9354 1.9219 18.7183 2.02306 18.5735 2.02306C14.853 2.03751 11.147 2.03751 7.4265 2.02306C7.28174 2.02306 7.06459 1.93635 6.99221 1.82073C6.71715 1.27157 6.47105 0.693495 6.16704 0.0576172Z" fill="#F0B800"/>
</svg>
