<svg width="46" height="46" viewBox="0 0 46 46" fill="none" xmlns="http://www.w3.org/2000/svg">
<path d="M6.35535 45.8884C6.35535 45.6902 6.35535 45.5317 6.35535 45.3731C6.35535 40.3787 6.35535 35.3842 6.35535 30.3897C6.35535 28.672 7.30668 27.7207 9.01114 27.7207C18.3394 27.7207 27.6678 27.7207 36.9961 27.7207C38.7137 27.7207 39.6519 28.672 39.6519 30.3897C39.6519 35.3842 39.6519 40.3787 39.6519 45.3731C39.6519 45.5317 39.6519 45.7035 39.6519 45.8884C28.553 45.8884 17.4806 45.8884 6.35535 45.8884ZM26.1747 40.339C26.1615 38.5949 24.7213 37.1944 22.964 37.2076C21.2331 37.2208 19.8325 38.6478 19.8325 40.3787C19.8325 42.1228 21.2727 43.5498 23.0168 43.5365C24.7741 43.5233 26.1879 42.0963 26.1747 40.339ZM16.1197 32.4245C17.0578 31.5128 17.9034 30.6804 18.7094 29.914C18.3659 29.5309 18.0223 29.1477 17.6656 28.7513C16.5953 29.8216 15.5515 30.8389 14.5341 31.896C14.151 32.2792 14.2038 32.6888 14.6134 33.1116C15.2873 33.7986 15.9743 34.4593 16.635 35.1464C16.9785 35.4899 17.2824 35.8731 17.5995 36.2298C18.062 35.7806 18.4187 35.437 18.7887 35.0803C17.9166 34.2082 17.071 33.3758 16.1197 32.4245ZM27.1657 29.914C28.0509 30.7861 28.9098 31.6317 29.8479 32.5566C28.9758 33.4155 28.117 34.2611 27.2714 35.0935C27.6017 35.437 27.9584 35.7938 28.3284 36.177C29.3326 35.1728 30.3368 34.1686 31.3409 33.1644C31.8563 32.6359 31.8562 32.2659 31.3277 31.7374C30.416 30.8257 29.5044 29.914 28.5927 29.0156C28.5002 28.9231 28.3945 28.857 28.3416 28.8042C27.9584 29.1609 27.6017 29.5044 27.1657 29.914ZM24.7477 28.8174C23.1489 30.9579 21.5766 33.0455 19.9911 35.1464C20.4403 35.4767 20.8235 35.7674 21.2595 36.0977C22.8583 33.9704 24.4306 31.8828 26.0029 29.7819C25.8444 29.6498 25.7122 29.5441 25.5801 29.4516C25.3291 29.2534 25.0648 29.0552 24.7477 28.8174Z" fill="#298CC9"/>
<path d="M33.2964 10.5835C32.9133 8.12594 31.2881 6.34219 30.0196 4.37347C29.7025 3.88459 29.2401 3.84496 28.738 4.22813C28.0906 4.73022 27.4563 5.25874 26.7957 5.76083C25.633 6.6593 24.3117 7.12176 22.845 7.13497C21.1274 7.14818 19.5682 7.65027 18.1545 8.61481C16.4236 9.79076 14.6662 10.9403 12.8825 12.1294C12.4068 11.1385 11.8915 10.2004 11.4951 9.20939C11.3498 8.83943 11.363 8.2977 11.5084 7.91453C12.354 5.72119 11.0327 3.56748 9.27538 3.06539C9.24895 3.05218 9.22253 3.02576 9.16968 2.9729C9.27538 2.90684 9.38108 2.82756 9.48679 2.77471C12.9618 1.00418 16.6482 0.0792774 20.546 0.0264258C22.9243 -0.0132129 25.3026 0 27.681 0.0132129C32.2923 0.0396387 35.4237 4.45275 33.9439 8.82622C33.7325 9.40759 33.5078 10.0022 33.2964 10.5835Z" fill="#298CC9"/>
<path d="M14.3097 15.8555C14.8382 15.8555 15.3138 15.8555 15.8556 15.8555C15.8556 16.5954 15.8556 17.3089 15.8556 18.0356C15.8556 19.5815 16.8465 20.5725 18.3924 20.5857C18.8417 20.5857 19.2777 20.5857 19.7269 20.5857C21.1804 20.5725 22.1845 19.5815 22.1978 18.1281C22.1978 17.9167 22.1978 17.7053 22.1978 17.4542C22.7263 17.4542 23.2284 17.4542 23.7833 17.4542C23.7833 17.7053 23.7833 17.9695 23.7833 18.2338C23.8097 19.5419 24.8139 20.546 26.1088 20.5857C26.6637 20.5989 27.2319 20.5989 27.7868 20.5857C29.0817 20.546 30.0859 19.5419 30.1123 18.2338C30.1255 17.4542 30.1123 16.6879 30.1123 15.8687C30.6276 15.8687 31.1297 15.8687 31.7375 15.8687C31.6186 16.9389 31.5393 18.0092 31.3675 19.053C30.9711 21.4049 30.1519 23.6247 28.976 25.7123C28.8174 26.003 28.6457 26.1351 28.2889 26.1351C24.7346 26.1219 21.1936 26.1219 17.6393 26.1219C17.3883 26.1219 17.1901 26.1219 17.0315 25.8444C15.3006 22.8055 14.3757 19.5419 14.27 16.0537C14.2964 16.014 14.3097 15.9612 14.3097 15.8555Z" fill="#298CC9"/>
<path d="M29.0948 5.97217C31.2353 8.33728 32.147 11.0591 31.6185 14.2567C31.5128 14.2567 31.341 14.2567 31.1693 14.2567C29.108 14.2567 27.0468 14.2567 24.9724 14.2567C24.0079 14.2567 23.7965 14.4681 23.7965 15.4062C23.7965 15.5383 23.7965 15.6572 23.7965 15.8422C23.519 15.8422 23.2679 15.8422 23.0301 15.8422C22.7791 15.8422 22.5412 15.8422 22.2109 15.8422C22.2109 15.6704 22.2109 15.5119 22.2109 15.3533C22.2109 14.5077 21.9599 14.2567 21.1275 14.2567C19.053 14.2567 16.9654 14.2567 14.891 14.2567C14.706 14.2567 14.5342 14.2567 14.3624 14.2567C14.151 13.2789 14.1907 13.16 14.957 12.6579C16.3444 11.733 17.7317 10.8213 19.1191 9.88319C20.1893 9.16969 21.3521 8.73366 22.6337 8.72045C24.7346 8.70724 26.5844 8.04659 28.1831 6.69888C28.487 6.44783 28.8174 6.19679 29.0948 5.97217Z" fill="#298CC9"/>
<path d="M0 45.8752C0.0792774 43.9329 -0.198194 42.017 0.4096 40.154C1.14952 37.8946 2.5633 36.1901 4.71701 35.0142C4.71701 38.6477 4.71701 42.2416 4.71701 45.8752C3.18431 45.8752 1.62519 45.8752 0 45.8752Z" fill="#298CC9"/>
<path d="M45.9941 45.9148C44.4746 45.9148 43.0476 45.9148 41.6074 45.9148C41.5149 45.9148 41.4092 45.9148 41.2771 45.9148C41.2771 42.2944 41.2771 38.6873 41.2771 35.0273C42.202 35.4766 42.9816 36.0844 43.6686 36.8243C45.1749 38.4759 45.9545 40.4182 45.9941 42.6512C46.0073 43.7346 45.9941 44.8049 45.9941 45.9148Z" fill="#298CC9"/>
<path d="M20.6121 15.8687C20.6121 16.6879 20.6386 17.4938 20.5989 18.2866C20.5725 18.7359 20.2554 18.9869 19.8062 19.0001C19.2776 19.0133 18.7491 19.0265 18.2206 19.0001C17.7582 18.9737 17.4675 18.7094 17.4543 18.247C17.4278 17.4674 17.441 16.6746 17.441 15.8687C18.5245 15.8687 19.5419 15.8687 20.6121 15.8687Z" fill="#298CC9"/>
<path d="M25.382 15.8555C26.4654 15.8555 27.4828 15.8555 28.5399 15.8555C28.5399 16.6879 28.5663 17.5071 28.5266 18.3263C28.5002 18.7491 28.1831 18.9869 27.7471 19.0001C27.2186 19.0134 26.69 19.0134 26.1615 19.0001C25.6991 18.9869 25.3952 18.683 25.382 18.2206C25.3688 17.441 25.382 16.6747 25.382 15.8555Z" fill="#298CC9"/>
<path d="M12.658 15.8422C12.7637 16.9917 12.8826 18.1016 13.0016 19.3832C12.3806 18.8283 11.7992 18.379 11.3235 17.8505C10.98 17.4673 11.0328 16.952 11.2971 16.5028C11.601 16.0139 12.0634 15.8157 12.658 15.8422Z" fill="#298CC9"/>
<path d="M33.019 19.3304C33.138 18.128 33.2437 17.0182 33.3494 15.9083C33.9439 15.7894 34.446 16.0272 34.7367 16.5425C35.0274 17.071 34.9481 17.692 34.4989 18.128C34.3403 18.2866 34.1554 18.4319 33.9704 18.5773C33.6665 18.8151 33.3758 19.0397 33.019 19.3304Z" fill="#298CC9"/>
<path d="M22.9772 41.9511C23.8361 41.9643 24.5628 41.264 24.5892 40.4052C24.6156 39.5463 23.9154 38.8064 23.0565 38.7932C22.1713 38.7668 21.4313 39.4803 21.4313 40.3655C21.4181 41.2244 22.1184 41.9379 22.9772 41.9511Z" fill="white"/>
<path d="M22.9773 41.9511C22.1184 41.9379 21.4049 41.2244 21.4181 40.3655C21.4181 39.4803 22.1581 38.7668 23.0433 38.7932C23.9022 38.8196 24.6025 39.5463 24.576 40.4052C24.5628 41.2772 23.8493 41.9643 22.9773 41.9511Z" fill="#298CC9"/>
</svg>
