<svg width="47" height="46" viewBox="0 0 47 46" fill="none" xmlns="http://www.w3.org/2000/svg">
<path d="M7.11749 38.4228C5.65362 37.7287 4.31595 36.921 3.14233 35.8357C1.47655 34.2962 0.277689 32.4916 0.0505367 30.1696C-0.214474 27.5447 0.807711 25.3615 2.59969 23.5191C4.80811 21.2475 7.5718 19.973 10.5879 19.2158C11.282 19.0391 12.0013 18.9129 12.7711 18.7615C12.5565 21.0582 13.2506 22.9386 15.0804 24.2762C16.8977 25.6139 18.8789 25.7022 20.999 24.8315C21.3397 25.2858 21.6931 25.7527 22.0969 26.308C21.8445 26.308 21.6805 26.308 21.5164 26.308C17.2131 26.308 12.9225 26.308 8.61922 26.308C8.48041 26.308 8.32897 26.2954 8.19016 26.3206C7.83681 26.3711 7.62228 26.573 7.59704 26.9516C7.58442 27.3175 7.78633 27.5447 8.13968 27.6204C8.30373 27.6583 8.48041 27.6457 8.65708 27.6457C13.3011 27.6457 17.9451 27.6456 22.5891 27.633C22.9677 27.633 23.1822 27.7592 23.3967 28.0495C24.0908 29.0212 24.8227 29.9677 25.5421 30.9267C26.4507 32.1256 27.8388 32.2644 28.9493 31.2675C29.227 31.0151 29.5046 30.7627 29.7949 30.5103C30.7918 29.6017 30.918 28.4281 30.1103 27.3428C28.8358 25.6139 27.536 23.885 26.2488 22.1561C26.1478 22.0173 26.0468 21.8785 25.9333 21.7145C26.2614 21.5883 26.5516 21.4621 26.8419 21.3737C26.9428 21.3359 27.0943 21.3611 27.1826 21.4116C29.3279 22.7366 31.1325 24.4024 32.0033 26.8506C33.0886 29.8919 32.2809 32.5673 30.2239 34.9398C30.123 35.0533 29.8958 35.1038 29.7318 35.1038C27.6369 35.1164 25.5421 35.1038 23.4472 35.1164C21.9455 35.1164 21.0495 36.0124 21.0369 37.5268C21.0369 38.2839 21.0369 39.0285 21.0369 39.8614C20.1914 39.975 19.3711 40.1643 18.5508 40.2021C17.1122 40.2652 15.6609 40.24 14.2097 40.2274C13.869 40.2274 13.5787 40.2905 13.3011 40.4924C10.9412 42.1455 8.58136 43.7987 6.20889 45.4266C6.05745 45.5402 5.81768 45.5402 5.62839 45.5907C5.61577 45.4014 5.56529 45.1995 5.60315 45.0228C6.10793 42.8144 6.61271 40.6438 7.11749 38.4228ZM16.2667 31.217C13.7175 31.217 11.1684 31.217 8.61922 31.217C8.46779 31.217 8.26587 31.1665 8.1523 31.2422C7.93777 31.3937 7.66014 31.5956 7.6349 31.8101C7.60966 32.0246 7.83681 32.2896 8.01348 32.4663C8.11444 32.5673 8.34159 32.542 8.50565 32.542C13.667 32.542 18.8285 32.542 23.9899 32.542C24.1413 32.542 24.3558 32.5673 24.4442 32.4789C24.6335 32.3023 24.8354 32.0625 24.8732 31.8353C24.9237 31.5072 24.6713 31.2927 24.3306 31.2422C24.1918 31.217 24.053 31.2296 23.9015 31.2296C21.365 31.217 18.8158 31.217 16.2667 31.217Z" fill="#298CC9"/>
<path d="M28.5076 45.9943C26.8545 45.9943 25.2013 45.9943 23.5481 45.9943C22.6648 45.9943 22.3745 45.7166 22.3745 44.8459C22.3745 42.4229 22.3745 40 22.3745 37.577C22.3745 36.7063 22.6648 36.416 23.5355 36.416C26.8545 36.416 30.1734 36.416 33.505 36.416C34.3883 36.416 34.666 36.6936 34.666 37.5644C34.666 40 34.666 42.4482 34.666 44.8837C34.666 45.7166 34.3883 45.9943 33.5681 45.9943C31.877 46.0069 30.186 45.9943 28.5076 45.9943ZM26.6273 41.2367C26.6273 41.7289 26.6147 42.2084 26.6273 42.7006C26.6399 43.1801 26.804 43.2811 27.2078 43.0539C28.0786 42.5617 28.9493 42.057 29.8201 41.5522C30.2239 41.3124 30.2239 41.1105 29.8201 40.8707C28.9493 40.3659 28.0786 39.8612 27.2078 39.369C26.8166 39.1418 26.6399 39.2554 26.6273 39.735C26.6147 40.2271 26.6273 40.7319 26.6273 41.2367Z" fill="#298CC9"/>
<path d="M20.9863 13.4107C23.7248 11.2654 26.1351 8.85502 28.028 5.85156C30.4258 10.0034 32.7856 14.0795 35.1833 18.244C31.6625 18.3954 28.3562 19.2788 25.1255 20.5786C23.75 18.1935 22.3745 15.8084 20.9863 13.4107Z" fill="#298CC9"/>
<path d="M4.22755 12.5399C3.91207 12.6913 3.55872 12.8049 3.28109 13.0068C2.95298 13.2466 2.68797 13.2592 2.41034 12.9563C2.15795 12.6787 1.88032 12.4137 1.6153 12.1487C1.37553 11.9089 1.37553 11.6691 1.57745 11.3915C2.43558 10.2052 1.95603 9.04424 0.504783 8.80447C0.176674 8.75399 0 8.57731 0 8.23659C0 7.83276 0 7.41631 0 7.01249C0 6.67176 0.176674 6.5077 0.517402 6.45723C1.90555 6.26793 2.43558 5.0186 1.60268 3.89545C1.38815 3.6052 1.36291 3.36543 1.62792 3.10042C1.90555 2.82279 2.18319 2.54516 2.46082 2.26753C2.70059 2.02776 2.94036 2.01514 3.21799 2.20443C4.42947 3.07518 5.53999 2.59564 5.84286 1.10653C5.88072 0.929856 6.13311 0.677465 6.3224 0.652226C6.75147 0.589128 7.20577 0.626986 7.64746 0.626986C7.96295 0.639606 8.11438 0.828899 8.16486 1.13177C8.40463 2.5704 9.57825 3.06256 10.7519 2.20443C11.0295 2.00252 11.2693 2.00252 11.509 2.24229C11.7993 2.53254 12.0895 2.82279 12.3798 3.11304C12.6069 3.34019 12.5943 3.56735 12.4177 3.83236C11.5469 5.06907 12.0138 6.20483 13.5029 6.44461C13.8184 6.49508 13.9825 6.65914 13.9825 6.97463C13.9825 7.40369 13.9825 7.82014 13.9825 8.24921C13.9825 8.57731 13.7932 8.71613 13.4903 8.77923C12.0138 9.03162 11.5721 10.1421 12.4303 11.4041C12.6069 11.6691 12.5943 11.8963 12.3798 12.1234C12.0895 12.4137 11.7993 12.7039 11.509 12.9942C11.2693 13.2339 11.0043 13.2466 10.7519 13.0194C9.72969 12.0729 8.16486 12.8932 8.16486 14.0668C8.16486 14.458 7.92509 14.6221 7.5465 14.6095C7.18053 14.5968 6.82719 14.5968 6.46122 14.6095C6.05739 14.6221 5.8681 14.4454 5.83024 14.029C5.71666 13.1961 5.07307 12.6156 4.22755 12.5399ZM3.63444 7.63085C3.63444 9.48592 5.12354 11.0003 6.99124 11.0003C8.82108 11.0003 10.3354 9.49854 10.348 7.68132C10.3607 5.81363 8.85894 4.29928 7.00386 4.28666C5.13616 4.27404 3.63444 5.76315 3.63444 7.63085Z" fill="#298CC9"/>
<path d="M38.7926 19.7963C37.9092 19.7079 37.3161 19.2915 36.8996 18.5596C35.196 15.6066 33.4924 12.6536 31.7887 9.70062C30.7161 7.84555 29.6434 6.00309 28.5834 4.14802C27.8262 2.79772 28.5707 1.25813 30.0725 1.03098C30.8927 0.904786 31.6878 1.32123 32.1799 2.16674C33.5807 4.5897 34.9815 7.01266 36.3822 9.43561C37.7452 11.8081 39.1207 14.168 40.4836 16.5404C41.0893 17.6005 40.8496 18.812 39.8779 19.4051C39.5498 19.5944 39.1459 19.6701 38.7926 19.7963Z" fill="#298CC9"/>
<path d="M24.1413 21.5125C22.5007 22.295 21.1504 23.5317 19.3837 23.9607C17.3772 24.4529 15.2823 23.3676 14.4368 21.4747C13.5913 19.5944 14.1592 17.285 15.8628 16.124C17.0743 15.2911 18.3994 14.6096 19.7118 13.8398C21.1757 16.389 22.6269 18.9003 24.1413 21.5125Z" fill="#298CC9"/>
<path d="M45.3421 25.2856C45.2285 27.2921 44.2821 29.3112 43.0075 31.1915C42.2251 32.3399 41.3038 33.3747 40.1176 34.1319C38.8052 34.9648 37.4549 35.1036 36.0793 34.2581C35.4736 33.8795 35.3222 33.3621 35.6755 32.7311C35.9532 32.2263 36.2434 31.7215 36.5463 31.2168C36.8996 30.6363 37.4296 30.4974 38.048 30.8129C38.2247 30.9139 38.4014 31.0148 38.578 31.1158C39.0323 31.3303 39.4993 31.2672 39.8274 30.8886C40.9757 29.5762 41.8465 28.0871 42.4018 26.4213C42.5658 25.9292 42.4018 25.5253 41.9853 25.2351C41.8339 25.1341 41.6572 25.0458 41.4931 24.9448C40.8622 24.5536 40.7107 24.0362 41.0641 23.38C41.3417 22.8878 41.6193 22.3957 41.9096 21.9035C42.2882 21.2725 42.8182 21.1463 43.4744 21.4997C44.8373 22.2695 45.38 23.4683 45.3421 25.2856Z" fill="#298CC9"/>
<path d="M22.1473 24.1625C22.2988 24.0742 22.425 23.9858 22.5638 23.9101C23.3336 23.4684 24.116 23.0141 24.8984 22.5598C24.9994 22.6734 25.0751 22.7491 25.1382 22.8374C26.4254 24.5663 27.7126 26.2952 28.9871 28.0241C29.4667 28.6677 29.4288 29.021 28.8357 29.5763C28.5707 29.8161 28.3057 30.0685 28.0281 30.3082C27.5485 30.7121 27.0437 30.6868 26.6651 30.1947C25.1634 28.2008 23.6743 26.1942 22.1473 24.1625Z" fill="#298CC9"/>
<path d="M40.0545 0.563951C39.9536 0.816342 39.9031 0.980397 39.8274 1.11921C39.3731 1.92686 38.9061 2.7219 38.4392 3.52955C38.1742 3.98385 37.8335 4.12267 37.4801 3.92076C37.1142 3.71884 37.0384 3.32764 37.3034 2.86071C37.783 2.02782 38.2625 1.19493 38.7421 0.374657C38.9188 0.0591681 39.209 -0.0922667 39.5371 0.0591682C39.739 0.147505 39.8778 0.387277 40.0545 0.563951Z" fill="#298CC9"/>
<path d="M43.8277 10.4324C44.3199 10.4324 44.7994 10.4197 45.2916 10.4324C45.7333 10.445 45.9983 10.6974 46.0109 11.076C46.0109 11.4672 45.7585 11.7322 45.3168 11.7448C44.3073 11.7574 43.2977 11.7574 42.3008 11.7448C41.8591 11.7448 41.6067 11.4672 41.6067 11.076C41.6193 10.6848 41.8717 10.445 42.326 10.4324C42.8182 10.4197 43.3229 10.4324 43.8277 10.4324Z" fill="#298CC9"/>
<path d="M41.5814 6.92435C41.4426 6.79815 41.165 6.65933 41.1019 6.45742C41.0388 6.25551 41.1271 5.8643 41.2912 5.76335C42.1745 5.19546 43.0958 4.67806 44.017 4.17328C44.3199 4.00923 44.6606 4.13542 44.7742 4.42567C44.8625 4.6402 44.8499 5.09451 44.7111 5.18284C43.7772 5.78858 42.8055 6.31861 41.8338 6.87387C41.8086 6.89911 41.7581 6.89911 41.5814 6.92435Z" fill="#298CC9"/>
<path d="M36.3696 6.7727C37.3792 6.59602 38.313 7.02509 38.8052 7.85798C39.3226 8.71611 39.2469 9.75091 38.5781 10.5964C37.8461 9.32185 37.1268 8.07251 36.3696 6.7727Z" fill="#298CC9"/>
</svg>
