<svg width="46" height="46" viewBox="0 0 46 46" fill="none" xmlns="http://www.w3.org/2000/svg">
<path d="M34.923 41.4301C38.2487 40.3045 40.4231 38.0532 41.5999 34.8171C42.3801 32.681 42.7127 30.4682 42.8406 28.217C42.879 27.5262 42.8534 26.8227 42.8534 26.0809C42.3929 26.0809 41.8813 26.0809 41.4592 26.0809C41.0755 27.3088 40.8452 28.5623 40.3208 29.6879C37.9417 34.7404 33.9125 37.4009 28.3356 37.6055C27.3763 37.6439 26.7495 37.887 26.1484 38.6544C24.4344 40.8161 22.6308 42.9138 20.8529 45.0243C20.0343 45.9964 18.947 46.2267 17.8982 45.6895C17.0028 45.229 16.5167 44.308 16.683 43.3103C16.9772 41.5836 17.297 39.8568 17.6168 38.13C17.6423 37.9893 17.6551 37.8486 17.6807 37.7463C10.5178 36.9916 6.14323 33.1927 4.65948 26.0553C4.55715 26.0553 4.36528 26.0425 4.18621 26.0553C0.591939 26.2343 -0.124357 25.5053 0.0163438 21.911C0.0802988 20.2993 0.0291348 18.6877 0.0291348 17.076C0.0291348 15.5155 0.975669 14.569 2.52338 14.569C3.2013 14.569 3.89202 14.569 4.60831 14.569C4.6211 14.4027 4.6211 14.2875 4.6211 14.1596C4.6211 11.5886 4.62111 9.01766 4.6339 6.44667C4.6339 6.15247 4.55715 6.01177 4.26296 5.89665C2.86874 5.34664 2.10128 3.91405 2.38268 2.50704C2.68966 1.01049 3.9176 0 5.40136 0C6.88511 0 8.10026 1.02328 8.40724 2.51983C8.68864 3.91405 7.8956 5.33385 6.52696 5.92223C6.37347 5.98619 6.18161 6.17805 6.18161 6.31876C6.15602 8.13508 6.16882 9.9514 6.16882 11.7805C6.16882 11.8189 6.1944 11.8573 6.21998 11.9596C6.30952 11.8061 6.37347 11.7166 6.43743 11.6142C9.05958 7.2525 12.9608 4.79663 17.9365 4.05475C19.4842 3.82451 21.0831 3.86288 22.6564 3.86288C24.46 3.86288 26.2763 3.81172 28.0542 4.06754C33.145 4.79663 37.1103 7.31645 39.7196 11.8317C39.7452 11.8701 39.7708 11.9084 39.8475 12.0108C39.8603 11.8445 39.8859 11.7421 39.8859 11.627C39.8859 9.90024 39.8859 8.18624 39.8987 6.45946C39.8987 6.16526 39.8092 6.02456 39.5278 5.90944C38.1207 5.33385 37.3533 3.91405 37.6347 2.49425C37.9417 1.01049 39.1568 0 40.6534 0C42.1371 0 43.3523 1.02328 43.6592 2.51983C43.9406 3.91405 43.1476 5.33385 41.7662 5.92223C41.6127 5.98619 41.4208 6.17805 41.4208 6.31876C41.408 9.01766 41.408 11.7166 41.408 14.4155C41.408 14.441 41.4208 14.4794 41.4464 14.569C42.0987 14.569 42.7511 14.569 43.4162 14.569C45.079 14.569 45.9872 15.4899 46 17.1399C46 19.276 46 21.4121 46 23.561C46 24.5843 45.5907 25.339 44.6953 25.8378C44.5674 25.9146 44.4907 26.1576 44.4651 26.3367C44.2604 28.3449 44.1837 30.3786 43.8639 32.374C43.3906 35.2776 42.2522 37.9125 40.1289 40.023C38.8626 41.2766 37.3661 42.1719 35.7032 42.7859C35.4218 42.8882 35.2811 43.0034 35.2428 43.3359C35.0253 44.9092 33.7206 46.0092 32.1601 45.9837C30.6892 45.9581 29.4101 44.8197 29.231 43.3871C29.0263 41.801 29.9473 40.3812 31.4694 40.0103C32.7101 39.7033 33.7718 40.0614 34.6032 41.0463C34.7183 41.1487 34.7951 41.2766 34.923 41.4301ZM23.0657 11.4991C20.5459 11.4991 18.0261 11.4991 15.5062 11.4991C13.1783 11.4991 11.5282 13.1492 11.5282 15.4899C11.5282 19.2121 11.5282 22.9215 11.5282 26.6437C11.5282 29.01 13.1655 30.6472 15.5318 30.66C20.5331 30.66 25.5216 30.66 30.5229 30.66C32.8892 30.66 34.5137 29.0228 34.5265 26.6565C34.5265 22.9599 34.5265 19.2505 34.5265 15.5539C34.5265 13.1492 32.902 11.5247 30.5101 11.5247C28.0159 11.4863 25.5472 11.4991 23.0657 11.4991Z" fill="#298CC9"/>
<path d="M29.1414 17.626C30.8298 17.626 32.2112 19.0074 32.2112 20.6958C32.2112 22.3842 30.817 23.7529 29.1286 23.7529C27.453 23.7401 26.0971 22.3714 26.0844 20.7086C26.0844 19.0074 27.453 17.626 29.1414 17.626Z" fill="#298CC9"/>
<path d="M16.8877 17.626C18.4737 17.626 19.804 18.8539 19.9447 20.4144C19.9959 21.0028 19.74 21.3865 19.2668 21.4377C18.7935 21.4889 18.4865 21.1691 18.4226 20.5679C18.333 19.7365 17.6807 19.1481 16.8877 19.1481C16.0946 19.1481 15.4551 19.7365 15.3655 20.5679C15.3016 21.1691 14.9818 21.4889 14.5085 21.4377C14.0353 21.3865 13.7922 20.99 13.8306 20.4016C13.9713 18.8539 15.3144 17.626 16.8877 17.626Z" fill="#298CC9"/>
<path d="M27.2356 14.5561C26.1483 14.5561 25.0611 14.5561 23.9739 14.5561C23.3727 14.5561 23.0273 14.2619 23.0273 13.7886C23.0273 13.3153 23.3855 13.0339 23.9867 13.0339C26.1611 13.0339 28.3228 13.0339 30.4973 13.0339C31.0985 13.0339 31.4566 13.3281 31.4438 13.8014C31.4438 14.2747 31.0857 14.5561 30.4845 14.5561C29.3973 14.5561 28.31 14.5561 27.2356 14.5561Z" fill="#298CC9"/>
<path d="M21.4796 13.7886C21.4796 14.1979 21.1343 14.5561 20.725 14.5561C20.3157 14.5561 19.9575 14.2107 19.9575 13.8014C19.9575 13.3793 20.3029 13.0339 20.7122 13.0339C21.1343 13.0339 21.4796 13.3793 21.4796 13.7886Z" fill="#298CC9"/>
</svg>
