<svg width="47" height="41" viewBox="0 0 47 41" fill="none" xmlns="http://www.w3.org/2000/svg">
<path d="M0.663574 13.7241C2.05642 13.7361 3.44927 13.7481 4.84212 13.7601C5.05825 13.7601 5.28639 13.7601 5.55055 13.7601C5.55055 14.0123 5.55055 14.2044 5.55055 14.3965C5.55055 20.6163 5.55055 26.8241 5.55055 33.0439C5.55055 33.7523 5.70664 34.4127 6.33102 34.809C6.66723 35.0131 7.09949 35.1692 7.49573 35.1692C18.1942 35.1932 28.8808 35.2052 39.5793 35.2052C39.7714 35.2052 39.9635 35.2052 40.1796 35.2052C40.1796 36.8262 40.1796 38.3991 40.1796 40.0562C27.0196 40.0562 13.8476 40.0562 0.675582 40.0562C0.663574 31.2788 0.663574 22.5015 0.663574 13.7241Z" fill="#F0B800"/>
<path d="M0.663574 6.44775C2.27255 6.44775 3.88153 6.44775 5.51453 6.44775C5.51453 8.35692 5.51453 10.2421 5.51453 12.1993C3.88153 12.1993 2.27255 12.1993 0.663574 12.1993C0.663574 10.2781 0.663574 8.36892 0.663574 6.44775Z" fill="#F0B800"/>
<path d="M7.17163 33.5965C7.17163 24.8552 7.17163 16.1259 7.17163 7.37256C20.3316 7.37256 33.4917 7.37256 46.6637 7.37256C46.6637 16.1139 46.6637 24.8312 46.6637 33.5965C33.4917 33.5965 20.3436 33.5965 7.17163 33.5965ZM30.826 11.4791C30.3698 11.4791 30.0095 11.5151 29.6613 11.4671C29.2531 11.419 29.097 11.5871 28.9649 11.9473C27.0437 17.4107 25.1105 22.862 23.1774 28.3133C23.1293 28.4694 23.0693 28.6135 23.0093 28.8056C23.6096 28.8056 24.162 28.8056 24.7263 28.8056C26.7556 23.0541 28.7848 17.3026 30.826 11.4791ZM31.8226 24.1468C32.0268 24.0747 32.1829 24.0147 32.3269 23.9547C34.4522 23.0661 36.5775 22.1776 38.7028 21.289C39.6754 20.8808 39.6634 20.8808 39.6754 19.8241C39.6754 19.536 39.5914 19.4039 39.3272 19.2958C37.9103 18.7195 36.5175 18.1191 35.1006 17.5307C34.032 17.0865 32.9513 16.6302 31.8346 16.1619C31.6785 16.6302 31.5225 17.0625 31.3664 17.5307C33.4917 18.3953 35.5929 19.2598 37.7903 20.1483C35.5809 21.0489 33.4917 21.9014 31.3664 22.7659C31.5225 23.2462 31.6665 23.6785 31.8226 24.1468ZM22.0127 16.1859C21.8326 16.246 21.7005 16.294 21.5564 16.354C19.4071 17.2546 17.2578 18.1551 15.1085 19.0557C14.1599 19.4519 14.1719 19.4519 14.1599 20.4965C14.1599 20.8087 14.28 20.9288 14.5561 21.0489C16.8976 22.0215 19.239 23.0061 21.5924 23.9907C21.7245 24.0507 21.8686 24.0867 22.0247 24.1468C22.1808 23.6785 22.3249 23.2462 22.4809 22.7899C20.3316 21.9134 18.2424 21.0609 16.069 20.1723C18.2544 19.2838 20.3557 18.4313 22.493 17.5548C22.3128 17.0745 22.1688 16.6422 22.0127 16.1859Z" fill="#F0B800"/>
<path d="M7.17163 5.71548C7.17163 3.79431 7.17163 1.90916 7.17163 0C20.3316 0 33.4796 0 46.6517 0C46.6517 1.89715 46.6517 3.7823 46.6517 5.71548C33.5037 5.71548 20.3557 5.71548 7.17163 5.71548ZM12.3828 3.49413C12.9231 3.48212 13.4635 3.50613 13.9918 3.48212C14.4 3.4581 14.6762 3.13391 14.6882 2.73767C14.7002 2.32942 14.4721 1.94518 14.1239 1.93318C13.0072 1.90916 11.8785 1.90916 10.7618 1.94518C10.3776 1.95719 10.1014 2.35343 10.1254 2.73767C10.1494 3.19394 10.4376 3.48212 10.8939 3.49413C11.3982 3.50613 11.8905 3.49413 12.3828 3.49413ZM19.1069 3.49413C19.6352 3.49413 20.1515 3.50613 20.6799 3.48212C21.1601 3.47011 21.4603 3.13391 21.4483 2.67763C21.4363 2.19734 21.1481 1.93318 20.6558 1.92117C20.4517 1.92117 20.2356 1.92117 20.0315 1.92117C19.239 1.92117 18.4465 1.90916 17.654 1.93318C17.1737 1.94518 16.8855 2.3054 16.9096 2.76168C16.9336 3.21796 17.2097 3.49413 17.678 3.49413C18.1583 3.50613 18.6386 3.49413 19.1069 3.49413Z" fill="#F0B800"/>
</svg>
