<svg width="49" height="52" viewBox="0 0 49 52" fill="none" xmlns="http://www.w3.org/2000/svg">
<path d="M45.8938 0C45.9663 0.0348814 46.0347 0.0791539 46.1112 0.101961C48.3476 0.787515 49.1257 3.24934 47.6607 5.08195C46.2185 6.88505 44.7454 8.66266 43.2858 10.4523C41.7631 12.3185 40.2404 14.186 38.7163 16.0522C38.6224 16.1675 38.5191 16.2762 38.4534 16.35C36.3269 14.2249 34.2126 12.1106 32.062 9.95998C32.2968 9.76277 32.5825 9.51726 32.8737 9.27845C36.3202 6.46245 39.7587 3.6384 43.2227 0.845203C43.6762 0.478948 44.2638 0.279051 44.7897 0.00134159C45.1573 0 45.5262 0 45.8938 0Z" fill="#6E264A"/>
<path d="M24.18 12.6889C23.3751 13.734 22.8398 14.7992 22.5366 15.9838C22.5044 16.1113 22.2696 16.2428 22.11 16.2763C19.1705 16.8854 16.9556 18.4282 15.732 21.2335C15.1391 22.5912 14.9942 24.0361 15.0049 25.5038C15.0089 26.1048 14.9968 26.7085 14.9539 27.3082C14.8976 28.0944 14.5568 28.7692 14.1423 29.436C12.8865 31.4537 13.8833 34.0336 16.1412 34.6803C17.1286 34.9633 18.1053 34.8802 18.9277 34.2818C19.9581 33.5332 21.1038 33.3736 22.3018 33.391C23.799 33.4138 25.2828 33.3695 26.7063 32.849C29.6457 31.7757 31.3495 29.6198 32.0217 26.6254C32.1424 26.0901 32.3356 25.8674 32.8575 25.7265C34.4499 25.2918 35.7701 24.3943 36.8205 23.1238C38.4304 21.1758 40.0189 19.2131 41.6181 17.2557C41.6999 17.1564 41.7884 17.0638 41.9306 16.9069C41.9306 23.5169 41.9306 30.0451 41.9306 36.6095C27.9727 36.6095 14.0255 36.6095 0.027359 36.6095C0.0193095 36.4565 0.00186878 36.2969 0.00186878 36.1359C0.000527186 29.6936 -0.002156 23.2499 0.00321037 16.8076C0.00589356 14.433 1.74057 12.6782 4.12056 12.6741C10.6809 12.6621 17.2413 12.6701 23.8004 12.6701C23.8956 12.6674 23.9909 12.6768 24.18 12.6889Z" fill="#6E264A"/>
<path d="M41.9053 39.6924C42.3346 42.1636 41.1057 44.2726 38.9001 44.8213C38.4681 44.9286 38.0066 44.9581 37.5585 44.9595C34.0945 44.9702 30.6305 44.9648 27.1665 44.9648C26.968 44.9648 26.7694 44.9648 26.54 44.9648C26.54 46.1146 26.54 47.2268 26.54 48.4047C27.3704 48.4047 28.2009 48.3939 29.0313 48.4087C29.6753 48.4194 30.1556 48.728 30.4132 49.3196C30.6627 49.8939 30.5608 50.4399 30.1529 50.9094C29.8121 51.3025 29.3573 51.4219 28.8449 51.4206C25.6317 51.4139 22.4186 51.4166 19.2055 51.4166C17.7325 51.4166 16.258 51.3696 14.7877 51.426C11.6819 51.5467 11.4873 50.9966 11.4645 49.9207C11.4444 48.9292 11.5906 48.233 14.7622 48.402C14.9755 48.4127 15.1901 48.4033 15.4571 48.4033C15.4571 47.7929 15.4571 47.2281 15.4571 46.6646C15.4571 46.1173 15.4571 45.5686 15.4571 44.9648C15.2076 44.9648 15.0117 44.9648 14.8158 44.9648C11.2848 44.9648 7.75369 44.9729 4.22262 44.9622C2.01033 44.9555 0.350782 43.5817 0.0462404 41.4767C-0.0369383 40.9052 0.0341661 40.3122 0.0341661 39.6924C13.9894 39.6924 27.9487 39.6924 41.9053 39.6924Z" fill="#6E264A"/>
<path d="M22.7607 30.2676C21.9142 30.3495 21.0636 30.4005 20.2238 30.5199C19.2377 30.6594 18.3267 31.0122 17.5003 31.5931C17.338 31.7072 16.9744 31.6924 16.8067 31.5811C16.6994 31.51 16.6846 31.0847 16.7906 30.9358C17.8169 29.5043 18.0316 27.8689 18.0799 26.1771C18.1054 25.2608 18.0705 24.3257 18.2422 23.4336C18.6836 21.1475 20.3566 19.6208 22.7057 19.2183C24.8898 18.844 27.1839 19.9065 28.3914 21.8156C30.4172 25.018 28.7898 30.0798 23.9708 30.32C23.571 30.3401 23.1686 30.3226 22.7674 30.3226C22.7647 30.3025 22.762 30.2851 22.7607 30.2676Z" fill="#6E264A"/>
<path d="M36.4275 18.8709C35.1141 20.2742 34.2165 22.2034 32.0539 22.8031C31.1054 19.4813 28.983 17.3227 25.6169 16.3554C26.1965 14.1954 28.1445 13.3046 29.5411 11.9858C31.8392 14.2826 34.1065 16.5486 36.4275 18.8709Z" fill="#6E264A"/>
</svg>
