<svg width="45" height="44" viewBox="0 0 45 44" fill="none" xmlns="http://www.w3.org/2000/svg">
<path d="M7.24683 16.2314C10.3919 14.3422 13.4726 12.4959 16.5533 10.6496C18.4211 9.53327 20.2888 8.41692 22.1458 7.28983C22.4034 7.12882 22.5966 7.11809 22.865 7.2791C27.7168 10.1988 32.5794 13.1185 37.442 16.0274C37.5386 16.0811 37.6352 16.1455 37.7747 16.2421C37.603 16.3602 37.4742 16.4568 37.3346 16.5319C32.5365 19.4087 27.7276 22.2962 22.9294 25.1729C22.704 25.3125 22.5215 25.4305 22.2102 25.2481C17.3155 22.2962 12.4099 19.355 7.51518 16.4139C7.42931 16.3709 7.37564 16.328 7.24683 16.2314Z" fill="#6E264A"/>
<path d="M23.2729 43.7536C23.2729 43.496 23.2729 43.335 23.2729 43.1632C23.2729 37.8606 23.2729 32.5579 23.2622 27.2445C23.2622 26.8581 23.3803 26.6541 23.713 26.4609C28.479 23.6164 33.2342 20.7611 38.0002 17.9058C38.1397 17.8199 38.2793 17.7448 38.4725 17.6375C38.4832 17.8414 38.5047 17.9809 38.5047 18.1205C38.5047 23.4768 38.5047 28.8332 38.5154 34.1895C38.5154 34.5115 38.4295 34.694 38.1397 34.8657C33.3416 37.7318 28.5541 40.6085 23.7667 43.4745C23.6486 43.5604 23.5198 43.6248 23.2729 43.7536Z" fill="#6E264A"/>
<path d="M21.6947 43.7536C20.589 43.0881 19.5586 42.4763 18.5281 41.8644C14.6531 39.5459 10.7888 37.2165 6.91375 34.898C6.65613 34.737 6.49512 34.5974 6.49512 34.2432C6.50585 28.8439 6.50585 23.4339 6.50585 18.0346C6.50585 17.938 6.51659 17.8307 6.52732 17.6589C6.68833 17.7341 6.81714 17.7877 6.92448 17.8629C11.7441 20.7504 16.553 23.6379 21.3726 26.5253C21.6088 26.6649 21.7269 26.8044 21.7269 27.105C21.7161 32.5257 21.7161 37.9465 21.7161 43.3672C21.7269 43.4638 21.7161 43.5604 21.6947 43.7536Z" fill="#6E264A"/>
<path d="M4.9604 34.6296C4.87452 35.2952 5.15361 35.6816 5.70105 35.9714C4.89599 36.4437 4.1446 36.8731 3.40395 37.3024C2.66329 37.7318 1.93337 38.1612 1.19271 38.5691C0.752614 38.8052 0.323248 38.6871 0.108565 38.3007C-0.106118 37.9358 0.00122353 37.5064 0.398387 37.2702C1.8797 36.4008 3.37174 35.5528 4.9604 34.6296Z" fill="#6E264A"/>
<path d="M39.4814 36.0572C39.7283 35.6171 39.9645 35.2092 40.2221 34.7477C40.1684 34.7262 40.2543 34.7477 40.3187 34.7799C41.6927 35.5742 43.0667 36.3685 44.4406 37.1628C44.5158 37.2058 44.5909 37.2487 44.6553 37.2916C45.0095 37.56 45.0954 37.9572 44.8915 38.3114C44.6768 38.6764 44.3118 38.8052 43.9039 38.5797C42.7232 37.925 41.5424 37.2487 40.3724 36.5832C40.0396 36.39 39.7176 36.1968 39.4814 36.0572Z" fill="#6E264A"/>
<path d="M23.2406 5.72259C22.7361 5.33616 22.2638 5.3469 21.77 5.72259C21.7485 5.55085 21.7271 5.4435 21.7271 5.33616C21.7271 3.88705 21.7271 2.42721 21.7271 0.978102C21.7271 0.860026 21.7271 0.741951 21.7485 0.634609C21.8451 0.226712 22.1135 -0.0201732 22.5321 0.00129505C22.9293 0.0120292 23.1869 0.258914 23.2406 0.645344C23.2835 0.956634 23.2728 1.27866 23.2728 1.58995C23.2728 2.7707 23.2728 3.96219 23.2728 5.14295C23.2728 5.3147 23.262 5.47571 23.2406 5.72259Z" fill="#6E264A"/>
</svg>
