<svg width="46" height="46" viewBox="0 0 46 46" fill="none" xmlns="http://www.w3.org/2000/svg">
<g clip-path="url(#clip0_114_613)">
<path d="M0 39.7981C0.210945 38.7012 0.632834 37.6887 1.36411 36.8308C2.03913 36.0292 2.85478 35.4667 3.85326 35.1292C6.86273 34.1307 9.87221 33.1323 12.8676 32.1197C13.177 32.0213 13.3458 32.0775 13.5708 32.2885C15.4974 34.2151 17.8037 35.523 20.4757 36.0574C24.3852 36.8308 27.915 35.8746 31.0792 33.4838C31.5854 33.0901 32.0355 32.626 32.5417 32.2182C32.6683 32.1197 32.9214 32.0494 33.0761 32.0916C36.1418 33.0901 39.2076 34.1026 42.2592 35.1433C44.4953 35.9027 46 38.0684 46 40.431C46 42.2591 46 44.0733 46 45.9718C30.6573 45.9718 15.3286 45.9718 0 45.9718C0 43.9326 0 41.8654 0 39.7981Z" fill="#298CC9"/>
<path d="M24.0758 -9.71779e-05C24.7368 0.12647 25.3978 0.210847 26.0447 0.36554C29.4338 1.23744 31.937 3.1922 33.4418 6.37043C33.484 6.45481 33.5121 6.53919 33.5543 6.66575C26.5087 6.66575 19.4913 6.66575 12.3333 6.66575C12.7973 5.89229 13.177 5.14695 13.6692 4.48599C15.6381 1.84215 18.3241 0.449918 21.5726 0.0702177C21.6851 0.0561547 21.7976 0.0139658 21.9101 -0.0141602C22.6414 -9.71779e-05 23.3586 -9.71779e-05 24.0758 -9.71779e-05Z" fill="#298CC9"/>
<path d="M22.993 22.993C19.2381 22.993 15.4833 22.993 11.7285 22.993C10.0691 22.993 8.78934 22.318 8.07213 20.7851C7.80493 20.2226 7.69243 19.5476 7.67837 18.9288C7.62211 17.1709 7.65024 15.399 7.6643 13.627C7.67837 11.1941 9.30967 9.5769 11.7426 9.5769C19.2522 9.5769 26.7618 9.5769 34.2855 9.5769C36.2825 9.5769 37.6888 10.6316 38.2091 12.4879C38.3075 12.8536 38.3357 13.2614 38.3497 13.6411C38.3638 15.413 38.3638 17.1709 38.3497 18.9428C38.3357 20.9117 37.2809 22.3461 35.4668 22.8383C35.059 22.9508 34.609 22.9789 34.1871 22.9789C30.4463 23.007 26.7196 22.993 22.993 22.993ZM11.5176 17.2131C12.8114 17.2131 14.0489 17.2131 15.3146 17.2131C15.3146 15.9334 15.3146 14.6958 15.3146 13.4302C14.0348 13.4302 12.7832 13.4302 11.5176 13.4302C11.5176 14.7099 11.5176 15.9474 11.5176 17.2131Z" fill="#298CC9"/>
<path d="M32.0355 25.9038C30.9808 29.518 26.8744 32.5134 22.993 32.5134C19.1116 32.5134 15.0333 29.5461 13.9505 25.9038C19.9835 25.9038 26.0025 25.9038 32.0355 25.9038Z" fill="#298CC9"/>
</g>
<defs>
<clipPath id="clip0_114_613">
<rect width="46" height="46" fill="white"/>
</clipPath>
</defs>
</svg>
