<svg width="40" height="33" viewBox="0 0 40 33" fill="none" xmlns="http://www.w3.org/2000/svg">
<path d="M0.00977995 15.8338C0.254279 15.4658 0.469438 15.068 0.762836 14.7498C3.67726 11.5974 6.60147 8.45494 9.51589 5.30253C10.1711 4.59647 10.9731 4.47713 11.6381 4.97436C12.2738 5.46164 12.4401 6.35665 12 7.02293C11.8924 7.18204 11.7555 7.33121 11.6186 7.48038C9.00733 10.2947 6.40587 13.099 3.79462 15.9133C3.72616 15.9929 3.6577 16.0724 3.57946 16.1619C3.66748 16.2614 3.74572 16.3509 3.82396 16.4404C6.44499 19.2646 9.05624 22.0789 11.6773 24.8932C12.0685 25.3208 12.3325 25.7783 12.2152 26.3849C11.9902 27.5584 10.6504 28.0357 9.76039 27.26C9.66259 27.1705 9.57457 27.081 9.48655 26.9816C6.57213 23.8491 3.6577 20.7165 0.753056 17.5641C0.459658 17.2459 0.254279 16.8382 0 16.4802C0.00977995 16.2514 0.00977995 16.0426 0.00977995 15.8338Z" fill="black"/>
<path d="M23.6772 1.74233C23.5207 2.7865 23.3447 3.97984 23.1589 5.18313C22.6503 8.56427 22.1417 11.9553 21.6332 15.3365C21.1051 18.8767 20.5672 22.417 20.0391 25.9572C19.7946 27.618 19.5403 29.2787 19.286 30.9394C19.1686 31.725 18.621 32.2422 17.8777 32.2919C17.1931 32.3317 16.5476 31.904 16.3716 31.2179C16.3031 30.9494 16.2933 30.6411 16.3325 30.3527C16.9584 26.1263 17.6038 21.9098 18.2395 17.6933C18.797 13.9741 19.3545 10.2449 19.9119 6.52564C20.176 4.78535 20.4303 3.04506 20.7041 1.31471C20.841 0.439596 21.5354 -0.0874634 22.3765 0.0119817C23.1589 0.101482 23.7065 0.75782 23.6772 1.74233Z" fill="black"/>
<path d="M36.4107 16.1519C36.3031 16.0326 36.2151 15.9232 36.1173 15.8237C33.5061 13.0094 30.9046 10.2051 28.2934 7.39078C27.7066 6.75433 27.5892 6.08805 27.9511 5.44165C28.4009 4.64609 29.4278 4.42731 30.1418 4.9842C30.2689 5.08365 30.3765 5.19304 30.4841 5.31237C33.4474 8.50456 36.4205 11.6968 39.3838 14.8989C40.2053 15.784 40.2053 16.5397 39.3838 17.4248C36.4107 20.6269 33.4376 23.8291 30.4645 27.0411C29.9951 27.5483 29.4474 27.777 28.7824 27.5583C28.2053 27.3594 27.863 26.9218 27.775 26.3053C27.6968 25.7484 27.9413 25.3108 28.3031 24.923C30.1222 22.9738 31.9315 21.0148 33.7408 19.0656C34.5623 18.1806 35.3838 17.2955 36.2053 16.4105C36.2738 16.321 36.3325 16.2414 36.4107 16.1519Z" fill="black"/>
</svg>
