<svg width="42" height="35" viewBox="0 0 42 35" fill="none" xmlns="http://www.w3.org/2000/svg">
<path d="M0.981689 15.0898C1.82871 13.6624 3.0365 12.5801 4.34625 11.6076C8.21275 8.7293 12.5028 6.73723 17.2006 5.63924C17.4594 5.5765 17.5378 5.48238 17.53 5.22357C17.5143 4.5883 17.53 3.94519 17.5222 3.30993C17.5143 2.77662 17.7418 2.39232 18.2045 2.13351C19.5456 1.3806 21.0044 0.949243 22.5023 0.651216C26.3924 -0.133064 30.3059 -0.172278 34.2352 0.337504C36.0469 0.572788 37.8193 0.988457 39.4977 1.73352C39.8036 1.86685 40.1094 2.03155 40.3996 2.20409C40.7839 2.43153 40.9878 2.78446 40.9878 3.23934C40.9878 7.2078 41.0741 11.1841 40.9565 15.1526C40.7682 21.6307 35.9135 27.1677 29.5217 28.3363C29.2315 28.3912 28.9021 28.3206 28.5962 28.2657C28.1492 28.1795 27.7178 28.0461 27.2551 27.9285C27.2002 28.0383 27.1374 28.1481 27.0825 28.2579C26.2355 30.0147 25.0434 31.5048 23.6003 32.8224C22.7925 33.5596 21.8749 33.9361 20.8161 34.0772C14.4164 34.9713 8.56568 31.8264 5.8207 25.9756C4.22077 22.5719 2.63652 19.1681 1.03659 15.7721C1.02875 15.7486 0.997375 15.7329 0.981689 15.7172C0.981689 15.5055 0.981689 15.3016 0.981689 15.0898ZM26.11 22.4856C26.1022 20.7915 25.9532 19.4112 25.3807 18.1407C23.8199 14.6663 22.1886 11.2233 20.573 7.77248C20.526 7.67837 20.322 7.5921 20.2044 7.59994C19.3652 7.69405 18.5182 7.76464 17.6947 7.94502C14.2047 8.71362 10.9891 10.1645 7.9461 11.9919C6.4246 12.9095 5.00505 13.9605 3.78157 15.2624C3.57766 15.482 3.56197 15.6388 3.68746 15.9055C5.107 18.9014 6.51087 21.9052 7.91473 24.9012C10.1499 29.6696 14.6439 32.2577 19.8985 31.8107C20.8632 31.7244 21.671 31.4185 22.3925 30.7205C24.8003 28.3677 26.0316 25.5364 26.11 22.4856ZM19.9221 5.25494C20.3456 5.25494 20.7612 5.2471 21.1769 5.25494C21.7494 5.27063 22.1573 5.52944 22.4004 6.07059C22.7298 6.80782 23.0827 7.52936 23.42 8.25874C23.616 8.68225 23.8199 9.05086 24.2356 9.34104C24.965 9.83514 25.4356 9.8822 26.1257 9.32536C26.6512 8.90185 27.3414 8.94106 27.7806 9.41163C28.2276 9.89788 28.1884 10.6037 27.6864 11.09C27.2394 11.5213 26.7139 11.8272 26.1022 11.9684C25.8277 12.0311 25.5532 12.0782 25.2787 12.1252C25.2865 12.1801 25.2787 12.2115 25.2865 12.235C25.9375 13.6232 26.5806 15.0192 27.2394 16.3996C27.2786 16.4858 27.459 16.5564 27.561 16.5486C27.8982 16.5172 28.2197 16.4074 28.557 16.376C30.6589 16.1878 32.4862 16.8309 33.9921 18.3132C34.3136 18.6269 34.4077 19.0269 34.2822 19.4661C34.1489 19.921 33.8352 20.1955 33.3803 20.2896C32.9019 20.3916 32.5333 20.1641 32.1882 19.8582C31.0039 18.7995 29.6393 18.4858 28.0707 18.8544C28.6119 21.1445 28.5805 23.3953 28.0315 25.6305C28.855 25.9756 29.2079 26.0148 29.8354 25.8501C35.0195 24.462 38.5487 19.968 38.6115 14.6114C38.6507 11.1527 38.6193 7.68621 38.6271 4.21969C38.6271 3.98441 38.5487 3.85892 38.337 3.79618C37.4272 3.52168 36.5331 3.18444 35.6155 2.98053C32.6666 2.32958 29.6785 2.25115 26.6826 2.44722C24.7846 2.5727 22.8945 2.81583 21.0906 3.45894C19.5378 4.00794 19.9221 3.58443 19.8907 5.14514C19.8907 5.16867 19.8985 5.17651 19.9221 5.25494Z" fill="black"/>
<path d="M16.0399 27.0657C15.3576 26.9246 14.6596 26.8226 13.9851 26.6422C13.2322 26.4383 12.8793 25.7873 13.0989 25.1207C13.3028 24.4776 13.9537 24.1796 14.6831 24.3913C17.0752 25.0893 19.1849 24.1011 20.1731 21.811C20.4789 21.113 21.1142 20.8072 21.7495 21.0581C22.3926 21.3169 22.6357 21.9993 22.3455 22.7287C21.3103 25.3325 18.8555 26.9873 16.0399 27.0657Z" fill="black"/>
<path d="M19.9221 13.984C20.2986 14.0624 20.6907 14.1095 21.0593 14.2271C21.726 14.4389 22.0475 15.0663 21.8593 15.7016C21.6632 16.329 21.0515 16.6584 20.3692 16.478C19.8672 16.3368 19.4124 16.3839 19.0359 16.7604C18.9026 16.8937 18.8085 17.0741 18.7222 17.2466C18.4006 17.8976 17.7497 18.1642 17.1379 17.8976C16.534 17.6309 16.2909 16.9486 16.5654 16.282C17.1066 14.9251 18.4477 14.0232 19.9221 13.984Z" fill="black"/>
<path d="M12.0951 17.6387C12.4872 17.7249 12.8872 17.7798 13.2636 17.8975C13.8911 18.0936 14.2205 18.7131 14.0636 19.3013C13.8989 19.9288 13.3029 20.2895 12.6519 20.1641C11.6088 19.9601 11.3735 20.0778 10.8481 21.0268C10.55 21.5758 9.90692 21.8032 9.34224 21.5679C8.76971 21.3248 8.49521 20.6817 8.69913 20.0778C9.18538 18.6739 10.5814 17.6936 12.0951 17.6387Z" fill="black"/>
<path d="M33.8274 12.1017C32.8549 12.086 32 11.7566 31.2942 11.0743C30.8079 10.6037 30.7765 9.90572 31.2079 9.42731C31.6393 8.9489 32.3294 8.894 32.8549 9.30967C33.5764 9.88219 34.0548 9.88219 34.7607 9.30967C35.2626 8.90968 35.9606 8.94105 36.3841 9.39594C36.8155 9.85866 36.8155 10.588 36.3528 11.0508C35.6626 11.7409 34.8077 12.0703 33.8274 12.1017Z" fill="black"/>
</svg>
