<svg width="153" height="72" viewBox="0 0 153 72" fill="none" xmlns="http://www.w3.org/2000/svg">
<g clip-path="url(#clip0_114_821)">
<path d="M149.81 29.1149H149.808C148.888 29.1149 148.143 29.8605 148.143 30.7802V53.0982C148.143 54.0179 148.888 54.7635 149.808 54.7635H149.81C150.729 54.7635 151.475 54.0179 151.475 53.0982V30.7802C151.475 29.8605 150.729 29.1149 149.81 29.1149Z" fill="#00589D"/>
<path d="M81.0814 20.0417H81.0796C80.1601 20.0417 79.4148 20.7874 79.4148 21.7071V53.2132C79.4148 54.133 80.1601 54.8786 81.0796 54.8786H81.0814C82.0009 54.8786 82.7462 54.133 82.7462 53.2132V21.7071C82.7462 20.7874 82.0009 20.0417 81.0814 20.0417Z" fill="#00589D"/>
<path d="M35.5993 29.1817C35.5993 29.1817 43.6838 29.3915 45.9889 34.7737C45.9889 34.7737 46.6459 36.1216 45.2707 36.8531C45.2707 36.8531 43.6523 37.8204 42.5406 35.6593C42.5406 35.6593 40.6883 32.0167 34.0588 32.1838C34.0588 32.1838 27.6984 32.2933 27.8135 35.4087C27.8135 35.4087 27.3272 38.4664 34.9756 39.7289C34.9756 39.7289 46.2154 41.5224 46.9949 46.6094C46.9949 46.6094 48.5297 54.9436 34.211 54.7616C34.211 54.7616 25.9742 54.8563 23.2887 48.9617C23.2887 48.9617 22.5221 47.5098 24.2946 46.5221C24.2946 46.5221 25.6958 45.7517 26.8892 47.9331C26.8892 47.9331 28.5392 52.4483 36.7462 51.6779C36.7462 51.6779 44.0049 51.0875 43.0602 46.8767C43.0602 46.8767 42.7336 44.1958 33.9382 42.7811C33.9382 42.7811 24.8644 41.7377 24.0923 36.09C24.0923 36.09 22.8599 28.97 35.603 29.1817H35.5993Z" fill="#00589D"/>
<path d="M59.3165 40.5588H71.7979V38.6521C71.7979 38.6521 72.1152 32.414 63.0229 32.4474C63.0229 32.4474 54.2516 32.3564 54.2497 38.9325V45.6626C54.2497 45.6626 54.1161 51.806 61.9538 51.4328H71.3042C71.3042 51.4328 73.0766 51.3214 73.162 53.0443C73.162 53.0443 73.1249 54.7654 71.3339 54.7654L61.8592 54.7691C61.8592 54.7691 50.6881 55.172 50.9146 45.9113V39.3353C50.9146 39.3353 50.0497 29.5493 62.867 29.1167C62.867 29.1167 74.6115 28.4966 75.1163 38.4683V41.9383C75.1163 41.9383 75.2518 43.8932 73.2771 43.8932H59.3165C59.3165 43.8932 57.6387 43.8988 57.6499 42.1722C57.6499 42.1722 57.5738 40.5607 59.3165 40.5607V40.5588Z" fill="#00589D"/>
<path d="M119.019 38.2771L109.544 26.8498C109.544 26.8498 105.456 22.7468 109.717 18.213C109.717 18.213 113.919 14.071 117.839 18.3783L125.946 28.0975L148.572 0.60523C148.572 0.60523 149.583 -0.757499 151.114 0.60523C151.114 0.60523 152.122 1.56137 151.166 2.72544L127.545 31.4486C127.545 31.4486 126.777 32.4381 125.821 32.336C125.821 32.336 125.205 32.388 124.123 31.1051L115.649 20.9144C115.649 20.9144 113.878 18.8981 111.892 20.7751C111.892 20.7751 110.198 22.2622 111.979 24.4196L121.733 36.2386C121.733 36.2386 122.757 37.3172 121.712 38.4108C121.712 38.4108 120.381 39.7772 119.021 38.2789L119.019 38.2771Z" fill="#8DC63F"/>
<path d="M95.493 40.5588H107.974V38.6521C107.974 38.6521 108.292 32.414 99.1994 32.4474C99.1994 32.4474 90.4281 32.3564 90.4263 38.9325V45.6626C90.4263 45.6626 90.2926 51.806 98.1303 51.4328H107.481C107.481 51.4328 109.253 51.3214 109.339 53.0443C109.339 53.0443 109.301 54.7654 107.51 54.7654L98.0357 54.7691C98.0357 54.7691 86.8647 55.172 87.0911 45.9113V39.3353C87.0911 39.3353 86.2262 29.5493 99.0435 29.1167C99.0435 29.1167 110.788 28.4966 111.293 38.4683V41.9383C111.293 41.9383 111.428 43.8932 109.454 43.8932H95.493C95.493 43.8932 93.8152 43.8988 93.8264 42.1722C93.8264 42.1722 93.7503 40.5607 95.493 40.5607V40.5588Z" fill="#00589D"/>
<path d="M130.287 36.2757L138.978 25.6542C138.978 25.6542 140.017 24.0111 141.602 25.4091C141.602 25.4091 142.619 26.3523 141.615 27.585L133.64 37.3729L142.532 48.1671C142.532 48.1671 146.298 52.1067 142.345 56.375C142.345 56.375 138.02 60.621 134.058 56.375L125.951 46.6558L107.529 68.9905C107.529 68.9905 106.566 70.1694 105.203 69.1483C105.203 69.1483 104.03 68.1958 104.886 66.887L124.52 43.2824C124.52 43.2824 125.157 42.4321 125.942 42.4284C125.942 42.4284 126.666 42.3021 127.371 43.1617L136.213 53.6904C136.213 53.6904 137.753 55.6992 139.85 54.0933C139.85 54.0933 141.847 52.7157 140.311 50.8053L130.381 38.7876C130.381 38.7876 129.197 37.6031 130.285 36.272L130.287 36.2757Z" fill="#00589D"/>
<path d="M150.021 15.9796C151.404 15.9796 152.531 17.1047 152.531 18.4897C152.531 19.8747 151.406 20.9998 150.021 20.9998C148.637 20.9998 147.512 19.8747 147.512 18.4897C147.512 17.1047 148.637 15.9796 150.021 15.9796ZM150.021 15.5099C148.377 15.5099 147.042 16.8448 147.042 18.4897C147.042 20.1346 148.377 21.4695 150.021 21.4695C151.666 21.4695 153 20.1346 153 18.4897C153 16.8448 151.666 15.5099 150.021 15.5099Z" fill="#00589D"/>
<path d="M148.871 19.9749V16.9431H150.096C150.463 16.9431 150.732 17.0174 150.903 17.164C151.072 17.3107 151.157 17.5428 151.157 17.8621C151.157 18.3337 150.964 18.6233 150.578 18.7273L151.348 19.9749H150.712L149.982 18.7848H149.411V19.9749H148.871ZM149.411 18.3207H150.066C150.263 18.3207 150.402 18.2873 150.487 18.2186C150.573 18.1499 150.613 18.0329 150.613 17.8658C150.613 17.6987 150.571 17.5855 150.487 17.5168C150.402 17.4462 150.263 17.4128 150.066 17.4128H149.411V18.3226V18.3207Z" fill="#00589D"/>
<path d="M0.714546 62.7486H3.73791C3.94206 62.7486 4.11281 62.8173 4.2483 62.9529C4.38378 63.0884 4.45245 63.2592 4.45245 63.4634C4.45245 63.6676 4.38378 63.8236 4.2483 63.9554C4.11281 64.0872 3.94206 64.1541 3.73791 64.1541H0.714546C0.51039 64.1541 0.339641 64.0854 0.204156 63.9498C0.0686706 63.8143 0 63.6435 0 63.4393C0 63.2351 0.0686706 63.0791 0.204156 62.9473C0.339641 62.8155 0.51039 62.7486 0.714546 62.7486ZM2.07868 61.1538C2.29954 61.1538 2.47957 61.2281 2.62062 61.3766C2.76167 61.5251 2.83034 61.7108 2.83034 61.9317V67.611C2.83034 67.7298 2.85447 67.8282 2.90087 67.9044C2.94727 67.9805 3.01037 68.0362 3.09203 68.0696C3.17184 68.103 3.25907 68.1197 3.35372 68.1197C3.4558 68.1197 3.5486 68.1012 3.63398 68.0622C3.71935 68.0232 3.81586 68.0046 3.92722 68.0046C4.046 68.0046 4.1555 68.0603 4.25201 68.1698C4.35038 68.2812 4.39863 68.4335 4.39863 68.6284C4.39863 68.8661 4.26871 69.0629 4.00888 69.2151C3.74904 69.3673 3.47065 69.4453 3.1737 69.4453C2.99552 69.4453 2.79694 69.4305 2.57979 69.4008C2.36264 69.3711 2.15848 69.2986 1.96732 69.1835C1.77616 69.0684 1.61654 68.8921 1.48848 68.6544C1.36042 68.4168 1.29732 68.0882 1.29732 67.6723V61.9299C1.29732 61.709 1.37156 61.5233 1.52003 61.3748C1.66851 61.2262 1.85411 61.152 2.07497 61.152L2.07868 61.1538Z" fill="#00589D"/>
<path d="M9.00519 69.5753C8.28322 69.5753 7.6559 69.4249 7.12324 69.1223C6.59244 68.8197 6.18413 68.4093 5.89831 67.8914C5.61249 67.3734 5.47144 66.7848 5.47144 66.1295C5.47144 65.3646 5.62734 64.711 5.93728 64.1708C6.24723 63.6305 6.65368 63.2165 7.15479 62.9269C7.6559 62.6372 8.18857 62.4924 8.74907 62.4924C9.18336 62.4924 9.59353 62.5815 9.97957 62.7598C10.3656 62.938 10.709 63.1831 11.0059 63.4931C11.3029 63.8032 11.5386 64.1633 11.713 64.5718C11.8875 64.9802 11.9747 65.4147 11.9747 65.8733C11.9654 66.0775 11.8856 66.2427 11.7316 66.3708C11.5794 66.4989 11.3994 66.5621 11.1952 66.5621H6.32332L5.94099 65.2866H10.6217L10.3415 65.5409V65.1956C10.3248 64.9487 10.2375 64.7278 10.0798 64.5328C9.92203 64.3379 9.72716 64.1819 9.49331 64.0668C9.25946 63.9517 9.01076 63.8941 8.74721 63.8941C8.48366 63.8941 8.25352 63.9276 8.03266 63.9963C7.8118 64.065 7.62064 64.1801 7.45917 64.3416C7.2977 64.5031 7.16964 64.7203 7.07684 64.9914C6.98405 65.2643 6.93579 65.6078 6.93579 66.0255C6.93579 66.4841 7.0323 66.874 7.22346 67.1933C7.41463 67.5126 7.66147 67.754 7.96399 67.9211C8.26652 68.0863 8.5876 68.1698 8.92724 68.1698C9.2409 68.1698 9.49331 68.1439 9.6789 68.0937C9.86636 68.0417 10.0167 67.9805 10.1318 67.9081C10.2468 67.8357 10.3508 67.7744 10.4436 67.7224C10.5957 67.6463 10.7405 67.6073 10.8779 67.6073C11.0653 67.6073 11.2194 67.6704 11.3437 67.7985C11.4662 67.9266 11.5293 68.0752 11.5293 68.246C11.5293 68.4762 11.4105 68.6841 11.173 68.8716C10.9521 69.0592 10.6421 69.2225 10.2413 69.3636C9.84223 69.5047 9.42835 69.5734 9.00333 69.5734L9.00519 69.5753Z" fill="#00589D"/>
<path d="M12.9212 68.3889C12.8358 68.2701 12.7987 68.116 12.8061 67.9304C12.8135 67.7428 12.9249 67.5813 13.1383 67.4458C13.2738 67.3604 13.4186 67.3251 13.5726 67.3381C13.7248 67.3511 13.8751 67.4291 14.0199 67.5739C14.2667 67.8208 14.5266 68.012 14.7976 68.1476C15.0704 68.2831 15.41 68.3518 15.8183 68.3518C15.9464 68.3444 16.0856 68.3239 16.2396 68.2942C16.3918 68.2645 16.5273 68.1958 16.6405 68.09C16.7556 67.9842 16.8131 67.8208 16.8131 67.598C16.8131 67.4105 16.75 67.262 16.622 67.1506C16.4939 67.0392 16.3269 66.9464 16.119 66.8702C15.9111 66.7941 15.6791 66.7217 15.423 66.653C15.1595 66.5769 14.8885 66.4915 14.6138 66.3987C14.3373 66.3058 14.0849 66.1833 13.8547 66.0348C13.6246 65.8863 13.4371 65.6876 13.2942 65.4407C13.1495 65.1938 13.0771 64.8837 13.0771 64.5087C13.0771 64.0835 13.1959 63.7215 13.4334 63.4244C13.671 63.1274 13.9791 62.8972 14.3577 62.7356C14.7363 62.5741 15.1335 62.4924 15.5511 62.4924C15.8146 62.4924 16.0912 62.524 16.3807 62.589C16.6702 62.6521 16.9468 62.7542 17.2103 62.8953C17.4738 63.0364 17.6947 63.2202 17.8729 63.4504C17.9657 63.5785 18.0214 63.7308 18.0381 63.909C18.0548 64.0872 17.975 64.2488 17.7949 64.3936C17.6669 64.4957 17.5184 64.5402 17.3476 64.5272C17.1769 64.5142 17.0377 64.4567 16.9263 64.3546C16.7816 64.1671 16.5886 64.0185 16.3454 63.9071C16.1023 63.7957 15.8239 63.7419 15.5102 63.7419C15.3822 63.7419 15.2448 63.7568 15.0964 63.7865C14.9479 63.8162 14.818 63.8793 14.7066 63.9777C14.5952 64.0761 14.5414 64.2302 14.5414 64.4437C14.5414 64.6386 14.6045 64.7946 14.7326 64.9097C14.8607 65.0248 15.0333 65.1176 15.2485 65.19C15.4657 65.2624 15.6977 65.333 15.9445 65.3998C16.1988 65.4685 16.4586 65.5484 16.7222 65.643C16.9857 65.7359 17.2289 65.8603 17.4497 66.0125C17.6706 66.1647 17.8488 66.3634 17.9861 66.6066C18.1216 66.8498 18.1902 67.158 18.1902 67.5312C18.1902 67.9656 18.0622 68.3351 17.8079 68.6414C17.5537 68.9478 17.2344 69.1798 16.8521 69.3376C16.4698 69.4954 16.0782 69.5734 15.6791 69.5734C15.178 69.5734 14.6751 69.4862 14.1739 69.3116C13.6728 69.1371 13.2552 68.8289 12.923 68.3871L12.9212 68.3889Z" fill="#00589D"/>
<path d="M19.5414 62.7486H22.5648C22.769 62.7486 22.9397 62.8173 23.0752 62.9529C23.2107 63.0884 23.2794 63.2592 23.2794 63.4634C23.2794 63.6676 23.2107 63.8236 23.0752 63.9554C22.9397 64.0872 22.769 64.1541 22.5648 64.1541H19.5414C19.3373 64.1541 19.1665 64.0854 19.0311 63.9498C18.8956 63.8143 18.8269 63.6435 18.8269 63.4393C18.8269 63.2351 18.8956 63.0791 19.0311 62.9473C19.1665 62.8155 19.3373 62.7486 19.5414 62.7486ZM20.9056 61.1538C21.1264 61.1538 21.3065 61.2281 21.4475 61.3766C21.5886 61.5251 21.6572 61.7108 21.6572 61.9317V67.611C21.6572 67.7298 21.6814 67.8282 21.7278 67.9044C21.7742 67.9805 21.8373 68.0362 21.9189 68.0696C21.9987 68.103 22.086 68.1197 22.1806 68.1197C22.2827 68.1197 22.3755 68.1012 22.4609 68.0622C22.5463 68.0232 22.6428 68.0046 22.7541 68.0046C22.8729 68.0046 22.9824 68.0603 23.0789 68.1698C23.1773 68.2812 23.2255 68.4335 23.2255 68.6284C23.2255 68.8661 23.0956 69.0629 22.8358 69.2151C22.5759 69.3673 22.2976 69.4453 22.0006 69.4453C21.8224 69.4453 21.6238 69.4305 21.4067 69.4008C21.1895 69.3711 20.9854 69.2986 20.7942 69.1835C20.6031 69.0684 20.4434 68.8921 20.3154 68.6544C20.1873 68.4168 20.1242 68.0882 20.1242 67.6723V61.9299C20.1242 61.709 20.1985 61.5233 20.3469 61.3748C20.4954 61.2262 20.681 61.152 20.9019 61.152L20.9056 61.1538Z" fill="#00589D"/>
<path d="M33.3182 62.6205C33.5391 62.6205 33.7228 62.6948 33.8676 62.8433C34.0123 62.9919 34.0847 63.1775 34.0847 63.3985V68.8215C34.0847 69.6031 33.9381 70.227 33.6448 70.6911C33.3516 71.1552 32.9581 71.4894 32.4644 71.6936C31.9708 71.8979 31.4177 72 30.8071 72C30.5342 72 30.2466 71.9777 29.9403 71.9369C29.6341 71.8942 29.3836 71.831 29.1887 71.7456C28.9344 71.6342 28.7562 71.4968 28.6597 71.3316C28.5614 71.1664 28.5428 70.9881 28.6022 70.8025C28.6783 70.5556 28.8026 70.3885 28.9715 70.2994C29.1423 70.2102 29.3204 70.1991 29.5079 70.2678C29.6434 70.3105 29.8216 70.3755 30.0443 70.4646C30.2651 70.5537 30.5213 70.5983 30.8089 70.5983C31.2005 70.5983 31.5253 70.5444 31.7852 70.4386C32.045 70.3328 32.2399 70.1527 32.3717 69.902C32.5034 69.6514 32.5684 69.3079 32.5684 68.8754V68.0213L32.8356 68.3277C32.6909 68.608 32.5108 68.8401 32.2937 69.0239C32.0766 69.2077 31.8204 69.3451 31.5216 69.4379C31.2247 69.5307 30.8832 69.579 30.5008 69.579C30.0498 69.579 29.6564 69.475 29.3204 69.2671C28.9845 69.0592 28.7228 68.7695 28.5354 68.4001C28.3479 68.0306 28.2551 67.6073 28.2551 67.1302V63.404C28.2551 63.1831 28.3275 62.9974 28.4723 62.8489C28.617 62.7004 28.7989 62.6261 29.0216 62.6261C29.2444 62.6261 29.4262 62.7004 29.571 62.8489C29.7158 62.9974 29.7882 63.1831 29.7882 63.404V66.6697C29.7882 67.223 29.9088 67.6129 30.1519 67.8375C30.3951 68.0622 30.7328 68.1754 31.1653 68.1754C31.4622 68.1754 31.7146 68.1179 31.9188 68.0028C32.123 67.8877 32.2807 67.7187 32.3902 67.4922C32.4997 67.2676 32.5554 66.9928 32.5554 66.6697V63.404C32.5554 63.1831 32.6278 62.9974 32.7725 62.8489C32.9173 62.7004 33.0992 62.6261 33.3219 62.6261L33.3182 62.6205Z" fill="#00589D"/>
<path d="M42.2992 66.0404C42.2992 66.7384 42.1433 67.353 41.8334 67.8839C41.5234 68.4149 41.1058 68.8308 40.5824 69.1278C40.0591 69.4249 39.4744 69.5753 38.8286 69.5753C38.1827 69.5753 37.5981 69.4268 37.0747 69.1278C36.5513 68.8308 36.1356 68.4149 35.8238 67.8839C35.5138 67.353 35.3579 66.7384 35.3579 66.0404C35.3579 65.3423 35.5138 64.7278 35.8238 64.1968C36.1337 63.6658 36.5513 63.2481 37.0747 62.9454C37.5981 62.6428 38.1827 62.4924 38.8286 62.4924C39.4744 62.4924 40.0591 62.6428 40.5824 62.9454C41.1058 63.2481 41.5216 63.6639 41.8334 64.1968C42.1433 64.7278 42.2992 65.3423 42.2992 66.0404ZM40.768 66.0404C40.768 65.6059 40.6808 65.2309 40.5064 64.9116C40.3319 64.5922 40.098 64.3434 39.8048 64.1652C39.5116 63.987 39.1868 63.8979 38.8286 63.8979C38.4704 63.8979 38.1456 63.987 37.8523 64.1652C37.5591 64.3434 37.3252 64.5922 37.1508 64.9116C36.9763 65.2309 36.8891 65.6078 36.8891 66.0404C36.8891 66.4729 36.9763 66.8387 37.1508 67.1562C37.3252 67.4755 37.5591 67.7243 37.8523 67.9025C38.1456 68.0807 38.4704 68.1698 38.8286 68.1698C39.1868 68.1698 39.5116 68.0807 39.8048 67.9025C40.098 67.7243 40.3319 67.4755 40.5064 67.1562C40.6808 66.8368 40.768 66.4655 40.768 66.0404Z" fill="#00589D"/>
<path d="M48.7022 62.6205C48.9231 62.6205 49.1068 62.6948 49.2516 62.8433C49.3964 62.9919 49.4687 63.1775 49.4687 63.3985V66.64C49.4687 67.5423 49.2182 68.2571 48.7152 68.7844C48.2141 69.3117 47.4903 69.5753 46.5475 69.5753C45.6046 69.5753 44.8827 69.3117 44.3853 68.7844C43.8879 68.2571 43.6392 67.5423 43.6392 66.64V63.3985C43.6392 63.1775 43.7115 62.9919 43.8563 62.8433C44.0011 62.6948 44.183 62.6205 44.4057 62.6205C44.6284 62.6205 44.8103 62.6948 44.955 62.8433C45.0998 62.9919 45.1722 63.1775 45.1722 63.3985V66.64C45.1722 67.158 45.2873 67.5442 45.5174 67.7948C45.7475 68.0455 46.0909 68.1717 46.5512 68.1717C47.0114 68.1717 47.3678 68.0455 47.5979 67.7948C47.8281 67.5442 47.9431 67.158 47.9431 66.64V63.3985C47.9431 63.1775 48.0155 62.9919 48.1603 62.8433C48.305 62.6948 48.4869 62.6205 48.7097 62.6205H48.7022Z" fill="#00589D"/>
<path d="M51.8908 69.4472C51.6699 69.4472 51.4862 69.3729 51.3414 69.2244C51.1967 69.0759 51.1243 68.8902 51.1243 68.6693V63.3985C51.1243 63.1775 51.1967 62.9919 51.3414 62.8434C51.4862 62.6948 51.6681 62.6206 51.8908 62.6206C52.1135 62.6206 52.2954 62.6948 52.4401 62.8434C52.5849 62.9919 52.6573 63.1775 52.6573 63.3985V64.5978L52.5682 63.7438C52.661 63.5396 52.7835 63.3595 52.932 63.2017C53.0805 63.0439 53.2493 62.9121 53.4349 62.8062C53.6224 62.7004 53.821 62.6206 54.0344 62.5704C54.246 62.5185 54.4594 62.4943 54.6729 62.4943C54.9271 62.4943 55.1424 62.5667 55.3169 62.7115C55.4913 62.8564 55.5786 63.0272 55.5786 63.2221C55.5786 63.5024 55.5062 63.7048 55.3614 63.8274C55.2167 63.9499 55.0589 64.013 54.89 64.013C54.7211 64.013 54.5819 63.9833 54.4502 63.9239C54.3184 63.8645 54.168 63.8348 53.9973 63.8348C53.8451 63.8348 53.6892 63.8701 53.5315 63.9425C53.3737 64.0149 53.2289 64.1281 53.0972 64.2804C52.9654 64.4326 52.8596 64.622 52.7779 64.8485C52.6963 65.0731 52.6573 65.3405 52.6573 65.6468V68.6712C52.6573 68.8921 52.5849 69.0778 52.4401 69.2263C52.2954 69.3748 52.1135 69.4491 51.8908 69.4491V69.4472Z" fill="#00589D"/>
<path d="M63.8823 62.7487C64.0865 62.7487 64.2572 62.8155 64.3927 62.9473C64.5282 63.0792 64.5969 63.2481 64.5969 63.4505C64.5969 63.6528 64.5282 63.8236 64.3927 63.9555C64.2572 64.0873 64.0865 64.1541 63.8823 64.1541H60.5026C60.2985 64.1541 60.1277 64.0891 59.9922 63.9555C59.8568 63.8236 59.7881 63.6547 59.7881 63.4505C59.7881 63.2463 59.8568 63.0792 59.9922 62.9473C60.1277 62.8155 60.2985 62.7487 60.5026 62.7487H63.8823ZM63.7413 60.0047C63.9287 60.0047 64.1106 60.0307 64.2906 60.0808C64.4688 60.1309 64.6173 60.2145 64.7379 60.3296C64.8567 60.4447 64.9161 60.5951 64.9161 60.7826C64.9161 60.9961 64.8549 61.1632 64.7305 61.2857C64.608 61.4082 64.4651 61.4714 64.3036 61.4714C64.2275 61.4714 64.1125 61.4528 63.9584 61.4138C63.8062 61.3748 63.6559 61.3563 63.5111 61.3563C63.2977 61.3563 63.1344 61.4027 63.0193 61.4974C62.9042 61.5902 62.8263 61.6997 62.7836 61.8223C62.7409 61.9448 62.7205 62.0543 62.7205 62.1472V68.6675C62.7205 68.8884 62.6481 69.0741 62.5034 69.2226C62.3586 69.3711 62.1767 69.4454 61.954 69.4454C61.7313 69.4454 61.5494 69.3711 61.4046 69.2226C61.2599 69.0741 61.1875 68.8884 61.1875 68.6675V62.1602C61.1875 61.5568 61.3991 61.0462 61.8259 60.6285C62.2509 60.2126 62.8894 60.0028 63.7394 60.0028L63.7413 60.0047Z" fill="#00589D"/>
<path d="M70.8719 62.6205C71.0928 62.6205 71.2765 62.6948 71.4213 62.8433C71.566 62.9919 71.6384 63.1775 71.6384 63.3985V66.64C71.6384 67.5423 71.3879 68.2571 70.8849 68.7844C70.3838 69.3117 69.66 69.5753 68.7171 69.5753C67.7743 69.5753 67.0523 69.3117 66.5549 68.7844C66.0575 68.2571 65.8088 67.5423 65.8088 66.64V63.3985C65.8088 63.1775 65.8812 62.9919 66.026 62.8433C66.1708 62.6948 66.3526 62.6205 66.5754 62.6205C66.7981 62.6205 66.98 62.6948 67.1247 62.8433C67.2695 62.9919 67.3419 63.1775 67.3419 63.3985V66.64C67.3419 67.158 67.4569 67.5442 67.6871 67.7948C67.9172 68.0455 68.2606 68.1717 68.7208 68.1717C69.1811 68.1717 69.5375 68.0455 69.7676 67.7948C69.9977 67.5442 70.1128 67.158 70.1128 66.64V63.3985C70.1128 63.1775 70.1852 62.9919 70.33 62.8433C70.4747 62.6948 70.6566 62.6205 70.8793 62.6205H70.8719Z" fill="#00589D"/>
<path d="M73.3718 62.7486H76.3951C76.5993 62.7486 76.77 62.8173 76.9055 62.9529C77.041 63.0884 77.1097 63.2592 77.1097 63.4634C77.1097 63.6676 77.041 63.8236 76.9055 63.9554C76.77 64.0872 76.5993 64.1541 76.3951 64.1541H73.3718C73.1676 64.1541 72.9969 64.0854 72.8614 63.9498C72.7259 63.8143 72.6572 63.6435 72.6572 63.4393C72.6572 63.2351 72.7259 63.0791 72.8614 62.9473C72.9969 62.8155 73.1676 62.7486 73.3718 62.7486ZM74.7359 61.1538C74.9568 61.1538 75.1368 61.2281 75.2778 61.3766C75.4189 61.5251 75.4876 61.7108 75.4876 61.9317V67.611C75.4876 67.7298 75.5117 67.8282 75.5581 67.9044C75.6045 67.9805 75.6676 68.0362 75.7493 68.0696C75.8291 68.103 75.9163 68.1197 76.0109 68.1197C76.113 68.1197 76.2058 68.1012 76.2912 68.0622C76.3766 68.0232 76.4731 68.0046 76.5844 68.0046C76.7032 68.0046 76.8127 68.0603 76.9092 68.1698C77.0076 68.2812 77.0559 68.4335 77.0559 68.6284C77.0559 68.8661 76.9259 69.0629 76.6661 69.2151C76.4063 69.3673 76.1279 69.4453 75.8309 69.4453C75.6527 69.4453 75.4542 69.4305 75.237 69.4008C75.0199 69.3711 74.8157 69.2986 74.6245 69.1835C74.4334 69.0684 74.2738 68.8921 74.1457 68.6544C74.0176 68.4168 73.9545 68.0882 73.9545 67.6723V61.9299C73.9545 61.709 74.0288 61.5233 74.1773 61.3748C74.3257 61.2262 74.5113 61.152 74.7322 61.152L74.7359 61.1538Z" fill="#00589D"/>
<path d="M83.5777 62.6205C83.7986 62.6205 83.9823 62.6948 84.1271 62.8433C84.2718 62.9919 84.3442 63.1775 84.3442 63.3985V66.64C84.3442 67.5423 84.0937 68.2571 83.5907 68.7844C83.0877 69.3117 82.3658 69.5753 81.4229 69.5753C80.4801 69.5753 79.7581 69.3117 79.2607 68.7844C78.7633 68.2571 78.5146 67.5423 78.5146 66.64V63.3985C78.5146 63.1775 78.587 62.9919 78.7318 62.8433C78.8766 62.6948 79.0584 62.6205 79.2812 62.6205C79.5039 62.6205 79.6858 62.6948 79.8305 62.8433C79.9753 62.9919 80.0477 63.1775 80.0477 63.3985V66.64C80.0477 67.158 80.1627 67.5442 80.3929 67.7948C80.623 68.0455 80.9664 68.1717 81.4267 68.1717C81.8869 68.1717 82.2433 68.0455 82.4734 67.7948C82.7036 67.5442 82.8186 67.158 82.8186 66.64V63.3985C82.8186 63.1775 82.891 62.9919 83.0358 62.8433C83.1805 62.6948 83.3624 62.6205 83.5851 62.6205H83.5777Z" fill="#00589D"/>
<path d="M86.7663 69.4472C86.5454 69.4472 86.3617 69.3729 86.2169 69.2244C86.0721 69.0759 85.9998 68.8902 85.9998 68.6693V63.3985C85.9998 63.1775 86.0721 62.9919 86.2169 62.8434C86.3617 62.6948 86.5436 62.6206 86.7663 62.6206C86.989 62.6206 87.1709 62.6948 87.3138 62.8434C87.4585 62.9919 87.5309 63.1775 87.5309 63.3985V64.5978L87.4418 63.7438C87.5346 63.5396 87.6571 63.3595 87.8056 63.2017C87.9541 63.0439 88.123 62.9121 88.3086 62.8062C88.496 62.7004 88.6946 62.6206 88.9081 62.5704C89.1196 62.5185 89.3331 62.4943 89.5465 62.4943C89.8008 62.4943 90.0161 62.5667 90.1905 62.7115C90.365 62.8564 90.4522 63.0272 90.4522 63.2221C90.4522 63.5024 90.3798 63.7048 90.2351 63.8274C90.0903 63.9499 89.9325 64.013 89.7636 64.013C89.5948 64.013 89.4556 63.9833 89.3238 63.9239C89.192 63.8645 89.0417 63.8348 88.8709 63.8348C88.7187 63.8348 88.5628 63.8701 88.4051 63.9425C88.2473 64.0149 88.1026 64.1281 87.9708 64.2804C87.839 64.4326 87.7332 64.622 87.6516 64.8485C87.5699 65.0731 87.5309 65.3405 87.5309 65.6468V68.6712C87.5309 68.8921 87.4585 69.0778 87.3138 69.2263C87.169 69.3748 86.9871 69.4491 86.7663 69.4491V69.4472Z" fill="#00589D"/>
<path d="M94.4703 69.5753C93.7465 69.5753 93.121 69.4249 92.5883 69.1223C92.0575 68.8197 91.6492 68.4093 91.3634 67.8914C91.0776 67.3734 90.9365 66.7848 90.9365 66.1295C90.9365 65.3646 91.0924 64.711 91.4024 64.1708C91.7123 63.6305 92.1188 63.2165 92.6199 62.9269C93.121 62.6372 93.6537 62.4924 94.2142 62.4924C94.6484 62.4924 95.0586 62.5815 95.4447 62.7598C95.8307 62.938 96.174 63.1831 96.471 63.4931C96.768 63.8032 97.0055 64.1633 97.1781 64.5718C97.3526 64.9802 97.4398 65.4147 97.4398 65.8733C97.4305 66.0775 97.3507 66.2427 97.1967 66.3708C97.0445 66.4989 96.8645 66.5621 96.6603 66.5621H91.7866L91.4042 65.2866H96.085L95.8047 65.5409V65.1956C95.788 64.9487 95.7008 64.7278 95.543 64.5328C95.3853 64.3379 95.1904 64.1819 94.9565 64.0668C94.7227 63.9517 94.474 63.8941 94.2104 63.8941C93.9469 63.8941 93.7168 63.9276 93.4959 63.9963C93.275 64.065 93.0839 64.1801 92.9224 64.3416C92.7609 64.5031 92.6329 64.7203 92.5401 64.9914C92.4473 65.2643 92.399 65.6078 92.399 66.0255C92.399 66.4841 92.4955 66.874 92.6867 67.1933C92.8779 67.5126 93.1247 67.754 93.4272 67.9211C93.7297 68.0863 94.0508 68.1698 94.3905 68.1698C94.7041 68.1698 94.9565 68.1439 95.144 68.0937C95.3314 68.0417 95.4818 67.9805 95.5968 67.9081C95.7119 67.8357 95.8159 67.7744 95.9086 67.7224C96.0608 67.6463 96.2056 67.6073 96.3429 67.6073C96.5304 67.6073 96.6844 67.6704 96.8088 67.7985C96.9313 67.9266 96.9944 68.0752 96.9944 68.246C96.9944 68.4762 96.8756 68.6841 96.6362 68.8716C96.4153 69.0592 96.1054 69.2225 95.7045 69.3636C95.3055 69.5047 94.8916 69.5734 94.4666 69.5734L94.4703 69.5753Z" fill="#00589D"/>
</g>
<defs>
<clipPath id="clip0_114_821">
<rect width="153" height="72" fill="white"/>
</clipPath>
</defs>
</svg>
