<svg width="153" height="63" viewBox="0 0 153 63" fill="none" xmlns="http://www.w3.org/2000/svg">
<g clip-path="url(#clip0_114_846)">
<path d="M29.3011 28.5509C29.3011 25.5986 26.9001 23.2065 23.9369 23.2065C20.9737 23.2065 18.5728 25.5986 18.5728 28.5509C18.5728 31.5031 20.9737 33.8952 23.9369 33.8952C26.9001 33.8952 29.3011 31.5031 29.3011 28.5509Z" fill="#0A7D8C"/>
<path d="M41.1567 50.4858C29.3874 34.1506 6.25699 42.5305 7.8053 62.5789C7.83407 62.6883 7.76345 62.816 7.64053 62.8212C7.55945 62.8265 7.48622 62.7769 7.45745 62.704C5.7496 58.2691 5.92745 53.1645 7.95176 48.852C12.0971 39.7528 23.1419 35.7479 32.1859 40.0629C36.517 42.0693 39.9484 45.8658 41.4993 50.3581C41.5568 50.59 41.2639 50.6942 41.1541 50.4832" fill="#0A7D8C"/>
<path d="M6.71722 27.9879C18.4864 44.3232 41.6169 35.9432 40.0686 15.8948C40.0398 15.7854 40.1104 15.6577 40.2334 15.6525C40.3144 15.6473 40.3877 15.6968 40.4164 15.7697C42.1243 20.2047 41.9464 25.3093 39.9221 29.6217C35.7768 38.7209 24.732 42.7259 15.688 38.4108C11.3569 36.4044 7.92552 32.6079 6.3746 28.1156C6.31706 27.8837 6.60998 27.7795 6.71983 27.9905" fill="#0A7D8C"/>
<path d="M16.844 4.44795L15.586 5.82637L15.2539 3.99455L13.5513 3.22847L15.1963 2.34774L15.4003 0.497681L16.7499 1.7823L18.5807 1.40447L17.7673 3.08255L18.6957 4.69809L16.844 4.44795Z" fill="#0A7D8C"/>
<path d="M8.43542 11.1265L8.23142 12.9765L6.88188 11.6893L5.05111 12.0697L5.8645 10.3916L4.93604 8.7761L6.78773 9.02625L8.04573 7.64783L8.37788 9.47965L10.0805 10.2457L8.43542 11.1265Z" fill="#0A7D8C"/>
<path d="M5.21862 21.6197L6.14446 23.2378L4.29277 22.9851L3.03738 24.3635L2.70262 22.5317L1 21.7656L2.64508 20.8848L2.84908 19.0348L4.20123 20.322L6.02938 19.9442L5.21862 21.6197Z" fill="#0A7D8C"/>
<path d="M36.8281 10.157L35.1255 9.39355L36.7706 8.51021L36.9746 6.66016L38.3241 7.94738L40.1549 7.56955L39.3441 9.24503L40.2699 10.8632L38.4183 10.6104L37.1603 11.9888L36.8281 10.157Z" fill="#0A7D8C"/>
<path d="M27.9725 4.04147L26.1417 4.4219L26.9551 2.74382L26.0266 1.12827L27.8783 1.37842L29.1363 0L29.4685 1.83182L31.1711 2.5979L29.526 3.47863L29.322 5.32869L27.9725 4.04147Z" fill="#0A7D8C"/>
<path d="M60.3876 42.1814C60.3876 43.3904 60.7433 44.477 61.4547 45.4359C61.9333 46.0847 62.5166 46.6085 63.1966 47.0098C63.5418 47.213 63.4398 47.729 63.0396 47.7733C62.8199 47.7993 62.5976 47.8123 62.3727 47.8123C60.8009 47.8123 59.4487 47.2599 58.311 46.1525C57.1759 45.0451 56.6084 43.7083 56.6084 42.1423L56.645 12.1245C56.645 10.8477 57.2884 10.2171 58.5752 10.2327C59.603 10.2457 60.419 11.1004 60.419 12.1245V12.2157L60.3824 42.1814H60.3876Z" fill="#0A7D8C"/>
<path d="M72.1174 29.0225C71.0608 29.0225 70.1664 29.3821 69.4341 30.1065C68.7044 30.8283 68.3408 31.7142 68.3408 32.7669V40.2896C68.3408 41.3553 68.7044 42.2465 69.4262 42.9683C70.1507 43.6901 71.0478 44.0497 72.1174 44.0497C73.1871 44.0497 74.0633 43.6849 74.7956 42.9579C75.5227 42.2309 75.8888 41.3397 75.8888 40.2896V32.7669C75.8888 31.7142 75.5227 30.8283 74.7956 30.1065C74.0633 29.3821 73.1688 29.0225 72.1174 29.0225ZM72.1174 25.2625C74.2019 25.2625 75.9856 25.9921 77.4581 27.4565C78.9331 28.9183 79.6654 30.6876 79.6654 32.7669V40.2896C79.6654 42.3794 78.9305 44.1591 77.4633 45.6183C75.9987 47.0801 74.2124 47.8123 72.1174 47.8123C70.0225 47.8123 68.2336 47.0801 66.7664 45.6183C65.2991 44.1591 64.5642 42.3794 64.5642 40.2896V32.7669C64.5642 30.6745 65.2991 28.9026 66.7664 27.446C68.2336 25.9894 70.0173 25.2625 72.1174 25.2625Z" fill="#0A7D8C"/>
<path d="M90.6815 44.0496C91.7382 44.0496 92.6274 43.6848 93.3597 42.9578C94.092 42.2308 94.4555 41.3397 94.4555 40.2896V32.7643C94.4555 31.7116 94.0894 30.8256 93.3597 30.1038C92.6274 29.3794 91.7382 29.0199 90.6815 29.0199C89.6249 29.0199 88.7331 29.3794 88.0034 30.1038C87.2711 30.8256 86.9049 31.7116 86.9049 32.7643V40.2896C86.9049 41.3553 87.2685 42.2465 87.9903 42.9682C88.7148 43.69 89.6118 44.0496 90.6815 44.0496ZM98.2348 32.7643V57.185C98.2348 58.7511 97.6803 60.0826 96.5766 61.177C95.4729 62.2714 94.1339 62.8212 92.562 62.8212C92.3214 62.8212 92.086 62.8056 91.8559 62.7769C91.4583 62.7274 91.3563 62.2167 91.7015 62.0134C92.3737 61.6174 92.9465 61.091 93.4172 60.4344C94.1129 59.4676 94.4608 58.3863 94.4608 57.185V46.7804C93.2943 47.4657 92.0337 47.8097 90.6842 47.8097C88.584 47.8097 86.8029 47.0775 85.3331 45.6157C83.8659 44.1538 83.1335 42.3768 83.1335 40.287V32.7617C83.1335 30.6693 83.8659 28.8974 85.3331 27.4408C86.8029 25.9842 88.584 25.2572 90.6842 25.2572C92.7843 25.2572 94.5497 25.9868 96.0248 27.4512C97.4998 28.913 98.2374 30.6823 98.2374 32.7617" fill="#0A7D8C"/>
<path d="M104.237 25.2624C105.49 25.2624 106.117 25.8851 106.117 27.1333V45.9205C106.117 47.179 105.49 47.8122 104.237 47.8122C102.984 47.8122 102.341 47.1816 102.341 45.9205V27.1333C102.341 25.8851 102.974 25.2624 104.237 25.2624ZM104.237 13.9952C105.49 13.9952 106.117 14.618 106.117 15.8661V19.6288C106.117 20.8769 105.49 21.4997 104.237 21.4997C102.984 21.4997 102.341 20.8769 102.341 19.6288V15.8661C102.341 14.618 102.974 13.9952 104.237 13.9952Z" fill="#0A7D8C"/>
<path d="M114.73 42.1814C114.73 43.3904 115.088 44.477 115.797 45.4359C116.278 46.0847 116.859 46.6085 117.541 47.0098C117.887 47.213 117.785 47.729 117.385 47.7733C117.165 47.7993 116.94 47.8123 116.715 47.8123C115.143 47.8123 113.794 47.2599 112.656 46.1525C111.521 45.0451 110.951 43.7083 110.951 42.1423L110.99 12.1245C110.99 10.8477 111.636 10.2171 112.92 10.2327C113.945 10.2457 114.764 11.1004 114.764 12.1245V12.2157L114.727 42.1814H114.73Z" fill="#0A7D8C"/>
<path d="M132.06 25.2624C133.352 25.2494 134 25.8721 134 27.1333V27.2428C133.99 27.2792 133.982 27.3105 133.982 27.334H134V42.1605C134 43.3721 134.34 44.4639 135.02 45.4359C135.48 46.0899 136.043 46.6136 136.707 47.0045C137.052 47.2077 136.953 47.7185 136.555 47.7706C136.325 47.8018 136.1 47.8149 135.881 47.8149C134.123 47.8149 132.687 47.1426 131.573 45.7954C130.098 47.1426 128.39 47.8149 126.452 47.8149C124.352 47.8149 122.566 47.0827 121.101 45.6209C119.634 44.1617 118.899 42.382 118.899 40.2922V27.1359C118.899 25.8748 119.545 25.2494 120.837 25.265C121.857 25.2754 122.673 26.1197 122.673 27.1359V40.2922C122.673 41.3553 123.036 42.2491 123.758 42.9709C124.483 43.6926 125.38 44.0522 126.45 44.0522C127.519 44.0522 128.398 43.6874 129.128 42.9604C129.855 42.2334 130.221 41.3423 130.221 40.2922V27.1359C130.221 26.1197 131.037 25.2754 132.057 25.265" fill="#0A7D8C"/>
<path d="M153.982 27.1516H154V30.8569C154 33.1187 153.142 34.9974 151.421 36.4905C153.142 37.994 154 39.8727 154 42.1241V45.832H153.982C153.992 45.858 154 45.8867 154 45.9232C154 47.1817 153.367 47.8149 152.104 47.8149C150.841 47.8149 150.226 47.1844 150.226 45.9232V42.1241C150.226 41.0739 149.86 40.1828 149.133 39.4558C148.4 38.7262 147.506 38.3614 146.455 38.3614C145.403 38.3614 144.503 38.7262 143.771 39.4558C143.044 40.1854 142.678 41.0739 142.678 42.1241V45.9232C142.678 47.1817 142.05 47.8149 140.797 47.8149C139.545 47.8149 138.899 47.1844 138.899 45.9232V42.1241C138.899 40.0577 139.641 38.2884 141.13 36.8214C141.3 36.652 141.415 36.54 141.477 36.4931C141.417 36.4436 141.3 36.3341 141.13 36.1622C139.641 34.7082 138.899 32.9389 138.899 30.8595V27.0604C138.899 25.8018 139.534 25.1713 140.797 25.1713C142.061 25.1713 142.678 25.8018 142.678 27.0604V30.8595C142.678 31.9123 143.044 32.8008 143.771 33.5278C144.501 34.2574 145.395 34.6222 146.455 34.6222C147.514 34.6222 148.403 34.2574 149.133 33.5278C149.86 32.7982 150.226 31.9096 150.226 30.8595V27.0604C150.226 25.8018 150.851 25.1713 152.104 25.1713C153.357 25.1713 154 25.8018 154 27.0604C154 27.0969 153.992 27.1282 153.982 27.1516Z" fill="#0A7D8C"/>
</g>
<defs>
<clipPath id="clip0_114_846">
<rect width="153" height="62.8212" fill="white"/>
</clipPath>
</defs>
</svg>
