<svg width="130" height="37" viewBox="0 0 130 37" fill="none" xmlns="http://www.w3.org/2000/svg">
<g clip-path="url(#clip0_114_906)">
<path d="M28.5211 19.6278V0H0V28.4973H34.226L28.5211 19.6247V19.6278ZM22.7643 22.7483H5.75684V5.75202H22.7643V22.7453V22.7483Z" fill="black"/>
<path d="M38.6431 14.9395L43.6383 23.1732L48.713 14.9395H54.8369L46.1833 28.4974V36.5233H40.9495V28.4974L32.2317 14.9395H38.6431Z" fill="black"/>
<path d="M54.583 31.3427V21.266H59.5935V29.9124C59.5935 31.6117 60.9455 32.4247 62.1538 32.4247C63.362 32.4247 64.6988 31.6147 64.6988 29.9124V21.266H69.7092V36.5232H65.1117L64.9527 35.0776C63.8698 36.4438 62.0253 37 60.2297 37C57.3513 37 54.583 34.9828 54.583 31.3427Z" fill="black"/>
<path d="M73.6858 36.5232V21.266H78.2833L78.4424 22.8706C79.5252 21.5044 81.3697 20.9481 83.1653 20.9481C86.0437 20.9481 88.812 22.9653 88.812 26.6054V36.5232H83.8016V28.0358C83.8016 26.3364 82.4495 25.5235 81.2413 25.5235C80.033 25.5235 78.6963 26.3334 78.6963 28.0358V36.5232H73.6858Z" fill="black"/>
<path d="M95.0186 13.83C96.6398 13.83 97.7869 14.9425 97.7869 16.5807C97.7869 18.2189 96.6429 19.313 95.0186 19.313C93.3943 19.313 92.2839 18.2005 92.2839 16.5807C92.2839 14.9608 93.3974 13.83 95.0186 13.83ZM97.6125 21.2691V36.5263H92.6021V21.2691H97.6125Z" fill="black"/>
<path d="M102.017 36.5232V21.266H106.74L106.899 23.3473C107.615 21.8375 109.126 20.9481 110.891 20.9481C111.497 20.9481 112.115 21.0581 112.751 21.266L112.448 25.6365C111.812 25.4134 111.16 25.3034 110.524 25.3034C108.631 25.3034 107.025 26.3364 107.025 29.1819V36.5263H102.014L102.017 36.5232Z" fill="black"/>
<path d="M121.793 20.9481C126.516 20.9481 130 24.3498 130 28.8946C130 33.4394 126.516 36.8411 121.793 36.8411C117.07 36.8411 113.586 33.4394 113.586 28.8946C113.586 24.3498 117.07 20.9481 121.793 20.9481ZM121.793 32.281C123.702 32.281 125.039 30.8354 125.039 28.8946C125.039 26.9538 123.702 25.5571 121.793 25.5571C119.884 25.5571 118.548 27.0027 118.548 28.8946C118.548 30.7865 119.884 32.281 121.793 32.281Z" fill="black"/>
</g>
<defs>
<clipPath id="clip0_114_906">
<rect width="130" height="37" fill="white"/>
</clipPath>
</defs>
</svg>
