<svg width="130" height="37" viewBox="0 0 130 37" fill="none" xmlns="http://www.w3.org/2000/svg">
<g clip-path="url(#clip0_2_349)">
<path d="M28.5211 19.6278V0H0V28.4973H34.226L28.5211 19.6247V19.6278ZM22.7643 22.7483H5.75684V5.75202H22.7643V22.7453V22.7483Z" fill="#FCD64D"/>
<path d="M38.643 14.9392L43.6382 23.173L48.7129 14.9392H54.8368L46.1832 28.4971V36.5231H40.9494V28.4971L32.2316 14.9392H38.643Z" fill="black"/>
<path d="M54.5829 31.3426V21.2659H59.5934V29.9122C59.5934 31.6116 60.9454 32.4245 62.1537 32.4245C63.362 32.4245 64.6987 31.6146 64.6987 29.9122V21.2659H69.7092V36.5231H65.1117L64.9526 35.0774C63.8698 36.4436 62.0252 36.9999 60.2297 36.9999C57.3512 36.9999 54.5829 34.9827 54.5829 31.3426Z" fill="black"/>
<path d="M73.6857 36.5231V21.2659H78.2832L78.4423 22.8704C79.5252 21.5043 81.3697 20.948 83.1652 20.948C86.0437 20.948 88.812 22.9652 88.812 26.6053V36.5231H83.8015V28.0356C83.8015 26.3363 82.4495 25.5233 81.2412 25.5233C80.0329 25.5233 78.6962 26.3333 78.6962 28.0356V36.5231H73.6857Z" fill="black"/>
<path d="M95.0185 13.8298C96.6397 13.8298 97.7868 14.9423 97.7868 16.5805C97.7868 18.2187 96.6427 19.3129 95.0185 19.3129C93.3942 19.3129 92.2838 18.2004 92.2838 16.5805C92.2838 14.9607 93.3973 13.8298 95.0185 13.8298ZM97.6124 21.269V36.5262H92.6019V21.269H97.6124Z" fill="black"/>
<path d="M102.017 36.5231V21.2659H106.74L106.899 23.3472C107.615 21.8374 109.126 20.948 110.891 20.948C111.497 20.948 112.115 21.058 112.751 21.2659L112.448 25.6364C111.812 25.4133 111.16 25.3033 110.524 25.3033C108.631 25.3033 107.025 26.3363 107.025 29.1818V36.5261H102.014L102.017 36.5231Z" fill="black"/>
<path d="M121.793 20.948C126.516 20.948 130 24.3497 130 28.8945C130 33.4392 126.516 36.8409 121.793 36.8409C117.07 36.8409 113.586 33.4392 113.586 28.8945C113.586 24.3497 117.07 20.948 121.793 20.948ZM121.793 32.2809C123.702 32.2809 125.038 30.8352 125.038 28.8945C125.038 26.9537 123.702 25.557 121.793 25.557C119.884 25.557 118.547 27.0026 118.547 28.8945C118.547 30.7863 119.884 32.2809 121.793 32.2809Z" fill="black"/>
</g>
<defs>
<clipPath id="clip0_2_349">
<rect width="130" height="37" fill="white"/>
</clipPath>
</defs>
</svg>
