<svg width="18" height="16" viewBox="0 0 18 16" fill="none" xmlns="http://www.w3.org/2000/svg">
<path d="M0 1.95522C0 1.80113 0 1.65144 0 1.49735C0.105661 1.24641 0.167297 0.969046 0.316984 0.748918C0.810071 0.0180925 1.65536 -0.188828 2.52707 0.176585C4.43778 0.969046 6.34849 1.76151 8.26361 2.55837C11.1209 3.74266 13.9781 4.93135 16.8354 6.11124C17.3813 6.33577 17.7775 6.70118 17.9316 7.28232C18.1782 8.20686 17.7467 9.02573 16.8178 9.40876C12.8159 11.0685 8.81393 12.7283 4.8164 14.3881C3.96671 14.7403 3.12582 15.1101 2.26732 15.4271C1.63335 15.6604 1.04781 15.4887 0.545918 15.0352C0.237738 14.7579 0.0924538 14.3969 0 14.0138C0 13.8597 0 13.7101 0 13.556C0.00880512 13.5472 0.0176102 13.5384 0.0220128 13.5296C0.264154 12.5698 0.501892 11.6144 0.744033 10.6547C0.942148 9.86662 1.14467 9.08297 1.35159 8.2817C1.42643 8.2817 1.49687 8.2817 1.56731 8.2817C3.55287 8.2817 5.53842 8.2817 7.52398 8.2817C7.59002 8.2817 7.65165 8.2861 7.71769 8.2773C8.00826 8.25088 8.21078 8.02635 8.20638 7.73578C8.19757 7.4276 7.96864 7.22509 7.61643 7.22509C5.60006 7.22509 3.58809 7.22509 1.57171 7.22509C1.50127 7.22509 1.43083 7.22509 1.36479 7.22509C1.34718 7.16785 1.32957 7.12383 1.32077 7.0798C1.04781 6.00998 0.774851 4.94016 0.501892 3.86593C0.330192 3.23196 0.162895 2.59359 0 1.95522Z" fill="#FCD64D"/>
</svg>
