<svg width="95" height="84" viewBox="0 0 95 84" fill="none" xmlns="http://www.w3.org/2000/svg">
<path d="M83.9613 0H0V83.9973H94.19L83.9613 68.0674V0ZM73.6368 73.6728H10.3245V10.3245H73.6368V73.6728Z" fill="#878791"/>
<path d="M32.9634 32.77C35.6583 32.77 37.4908 30.9614 37.4908 28.3144C37.4908 25.6674 35.6703 23.787 32.9634 23.787C30.2565 23.787 28.5078 25.6195 28.5078 28.3144C28.5078 31.0093 30.3164 32.77 32.9634 32.77Z" fill="#878791"/>
<path d="M55.458 25.2483H46.2953L42.75 32.3389H49.3735L55.458 25.2483Z" fill="#878791"/>
<path d="M31.4766 45.3103V57.0721C31.4766 62.4379 35.6567 66.115 41.9807 66.115C48.3048 66.115 52.4849 62.4379 52.4849 57.0721V45.3103H44.3762V56.605C44.3762 58.0063 43.418 58.9645 41.9807 58.9645C40.5434 58.9645 39.5852 58.0063 39.5852 56.605V45.3103H31.4766Z" fill="#878791"/>
</svg>
