<svg width="95" height="84" viewBox="0 0 95 84" fill="none" xmlns="http://www.w3.org/2000/svg">
<path d="M83.9613 0H0V83.9973H94.19L83.9613 68.0674V0ZM73.6368 73.6728H10.3245V10.3365H73.6249V73.6728H73.6368Z" fill="#878791"/>
<path d="M28.1711 17.6786H21.1523V35.6806H28.1711V17.6786Z" fill="#878791"/>
<path d="M28.1711 45.514H21.1523V63.516H28.1711V45.514Z" fill="#878791"/>
<path d="M53.5353 55.4313C60.1947 55.4313 64.7581 51.1194 64.7581 44.8193C64.7581 38.5192 60.1947 34.2074 53.5353 34.2074C46.8759 34.2074 42.3125 38.5192 42.3125 44.8193C42.3125 51.1194 46.8759 55.4313 53.5353 55.4313ZM53.5353 41.0105C55.6313 41.0105 57.0566 42.5556 57.0566 44.8074C57.0566 47.0591 55.6313 48.6281 53.5353 48.6281C51.4393 48.6281 50.0139 47.0831 50.0139 44.8074C50.0139 42.5317 51.4393 41.0105 53.5353 41.0105Z" fill="#878791"/>
</svg>
