<svg width="95" height="84" viewBox="0 0 95 84" fill="none" xmlns="http://www.w3.org/2000/svg">
<path d="M83.9613 0H0V83.9973H94.19L83.9613 68.0674V0ZM73.6368 73.6728H10.3245V10.3365H73.6249V73.6728H73.6368Z" fill="#878791"/>
<path d="M29.5822 48.4844C36.2416 48.4844 40.805 44.1725 40.805 37.8724C40.805 31.5724 36.2416 27.2605 29.5822 27.2605C22.9228 27.2605 18.3594 31.5724 18.3594 37.8724C18.3594 44.1725 22.9228 48.4844 29.5822 48.4844ZM29.5822 34.0636C31.6782 34.0636 33.1035 35.6087 33.1035 37.8605C33.1035 40.1122 31.6782 41.6812 29.5822 41.6812C27.4861 41.6812 26.0608 40.1362 26.0608 37.8605C26.0608 35.5848 27.4861 34.0636 29.5822 34.0636Z" fill="#878791"/>
<path d="M54.379 48.4844C61.0385 48.4844 65.6018 44.1725 65.6018 37.8724C65.6018 31.5724 61.0385 27.2605 54.379 27.2605C47.7196 27.2605 43.1562 31.5724 43.1562 37.8724C43.1562 44.1725 47.7196 48.4844 54.379 48.4844ZM54.379 34.0636C56.4751 34.0636 57.9004 35.6087 57.9004 37.8605C57.9004 40.1122 56.4751 41.6812 54.379 41.6812C52.283 41.6812 50.8577 40.1362 50.8577 37.8605C50.8577 35.5848 52.283 34.0636 54.379 34.0636Z" fill="#878791"/>
</svg>
