<svg width="95" height="84" viewBox="0 0 95 84" fill="none" xmlns="http://www.w3.org/2000/svg">
<path d="M83.9613 0H0V83.9973H94.19L83.9613 68.0674V0ZM73.6368 73.6728H10.3245V10.3245H73.6368V73.6728Z" fill="#878791"/>
<path d="M38.7961 34.7823H30.3281V63.6119H38.7961V34.7823Z" fill="#878791"/>
<path d="M34.5298 32.77C37.2247 32.77 39.0453 30.9614 39.0453 28.3144C39.0453 25.6674 37.2247 23.787 34.5298 23.787C31.8349 23.787 30.0742 25.6195 30.0742 28.3144C30.0742 31.0093 31.8828 32.77 34.5298 32.77Z" fill="#878791"/>
<path d="M53.636 34.7823H45.168V63.6119H53.636V34.7823Z" fill="#878791"/>
<path d="M49.3579 32.77C52.0528 32.77 53.8734 30.9614 53.8734 28.3144C53.8734 25.6674 52.0528 23.787 49.3579 23.787C46.663 23.787 44.9023 25.6195 44.9023 28.3144C44.9023 31.0093 46.7109 32.77 49.3579 32.77Z" fill="#878791"/>
</svg>
