<svg width="95" height="84" viewBox="0 0 95 84" fill="none" xmlns="http://www.w3.org/2000/svg">
<path d="M83.9613 0H0V83.9973H94.19L83.9613 68.0674V0ZM73.6368 73.6728H10.3245V10.3365H73.6368V73.6728Z" fill="#878791"/>
<path d="M46.1034 33.86C48.2234 33.86 49.6846 32.4347 49.6846 30.3387C49.6846 28.2426 48.2234 26.7694 46.1034 26.7694C43.9834 26.7694 42.582 28.2067 42.582 30.3387C42.582 32.4706 44.0433 33.86 46.1034 33.86Z" fill="#878791"/>
<path d="M37.8265 33.86C39.9226 33.86 41.3958 32.4347 41.3958 30.3387C41.3958 28.2426 39.9346 26.7694 37.8265 26.7694C35.7185 26.7694 34.2812 28.2067 34.2812 30.3387C34.2812 32.4706 35.7425 33.86 37.8265 33.86Z" fill="#878791"/>
<path d="M41.9806 58.6292C48.64 58.6292 53.2034 54.3173 53.2034 48.0172C53.2034 41.7171 48.64 37.4053 41.9806 37.4053C35.3212 37.4053 30.7578 41.7171 30.7578 48.0172C30.7578 54.3173 35.3212 58.6292 41.9806 58.6292ZM41.9806 44.2084C44.0766 44.2084 45.502 45.7535 45.502 48.0052C45.502 50.257 44.0766 51.826 41.9806 51.826C39.8846 51.826 38.4593 50.2809 38.4593 48.0052C38.4593 45.7295 39.8846 44.2204 41.9806 44.2084Z" fill="#878791"/>
</svg>
