<svg width="95" height="84" viewBox="0 0 95 84" fill="none" xmlns="http://www.w3.org/2000/svg">
<path d="M83.9613 0H0V83.9973H94.19L83.9613 68.0674V0ZM10.3245 73.6728V53.9221C13.5943 56.641 17.8343 58.21 22.3977 58.21C26.4939 58.21 29.632 56.9524 32.6743 55.2995L31.1891 52.0536C28.578 53.5388 25.7753 54.4371 22.3977 54.4371C17.3312 54.4371 12.9595 52.1015 10.3245 48.3886V31.0453C12.8996 27.3922 17.2234 25.2124 22.6252 25.2124C30.8178 25.2124 36.7825 31.201 36.7825 38.8426C36.7825 42.8311 35.9321 45.7655 33.9439 45.7655C32.6743 45.7655 32.1832 44.7235 32.1832 43.5737V30.8297H25.6076L25.2722 32.4826C24.3859 31.3567 22.9367 30.3387 20.4094 30.3387C15.5227 30.3387 12.0852 34.5667 12.0852 40.1002C12.0852 45.6338 15.7143 49.8019 20.7688 49.8019C23.2361 49.8019 25.7513 48.9994 27.4521 46.3045C28.5181 48.3167 30.4225 49.5983 33.6085 49.5983C37.4532 49.5743 40.6751 45.8014 40.6751 38.8306C40.6751 28.9134 32.4587 21.4395 22.8289 21.4395C18.0619 21.4395 13.6901 23.0085 10.3365 25.7633V10.3125H73.6368V25.6196C70.4868 22.9965 66.4025 21.4395 62.0188 21.4395C51.6823 21.4395 43.0946 28.7457 43.0946 39.8727C43.0946 50.9996 51.5865 58.198 61.5996 58.198C65.6958 58.198 68.8339 56.9404 71.8762 55.2875L70.391 52.0417C67.7799 53.5268 64.9772 54.4251 61.5996 54.4251C53.3232 54.4251 46.8914 48.2209 46.8914 39.9206C46.8914 31.1292 52.904 25.2124 61.8391 25.2124C66.9415 25.2124 71.1815 27.536 73.6488 31.1411V45.6936C73.4931 45.7416 73.3254 45.7655 73.1458 45.7655C71.8762 45.7655 71.3851 44.7235 71.3851 43.5737V30.8297H64.8095L64.4742 32.4826C63.5878 31.3567 62.1386 30.3387 59.6113 30.3387C54.7246 30.3387 51.2871 34.5667 51.2871 40.1002C51.2871 45.6338 54.9162 49.8019 59.9707 49.8019C62.438 49.8019 64.9533 48.9994 66.654 46.3045C67.72 48.3167 69.6244 49.5983 72.8104 49.5983C73.0979 49.5983 73.3733 49.5623 73.6488 49.5264V73.6608L10.3245 73.6728ZM25.4759 40.1002C25.4759 42.1603 24.2063 43.5617 22.2899 43.5617C20.3735 43.5617 19.0201 42.1603 19.0201 40.1002C19.0201 38.0401 20.3136 36.5909 22.2899 36.5909C24.2661 36.5909 25.4759 37.9922 25.4759 40.1002ZM64.6658 40.1002C64.6658 42.1603 63.3962 43.5617 61.4798 43.5617C59.5634 43.5617 58.21 42.1603 58.21 40.1002C58.21 38.0401 59.5036 36.5909 61.4798 36.5909C63.4561 36.5909 64.6658 37.9922 64.6658 40.1002Z" fill="#878791"/>
</svg>
